%TF.GenerationSoftware,KiCad,Pcbnew,(7.0.0)*%
%TF.CreationDate,2024-11-11T13:13:17+03:00*%
%TF.ProjectId,04. Keyboard 6x4 Matrix,30342e20-4b65-4796-926f-617264203678,rev?*%
%TF.SameCoordinates,PX24bd848PY898b2e8*%
%TF.FileFunction,Soldermask,Bot*%
%TF.FilePolarity,Negative*%
%FSLAX46Y46*%
G04 Gerber Fmt 4.6, Leading zero omitted, Abs format (unit mm)*
G04 Created by KiCad (PCBNEW (7.0.0)) date 2024-11-11 13:13:17*
%MOMM*%
%LPD*%
G01*
G04 APERTURE LIST*
G04 Aperture macros list*
%AMRoundRect*
0 Rectangle with rounded corners*
0 $1 Rounding radius*
0 $2 $3 $4 $5 $6 $7 $8 $9 X,Y pos of 4 corners*
0 Add a 4 corners polygon primitive as box body*
4,1,4,$2,$3,$4,$5,$6,$7,$8,$9,$2,$3,0*
0 Add four circle primitives for the rounded corners*
1,1,$1+$1,$2,$3*
1,1,$1+$1,$4,$5*
1,1,$1+$1,$6,$7*
1,1,$1+$1,$8,$9*
0 Add four rect primitives between the rounded corners*
20,1,$1+$1,$2,$3,$4,$5,0*
20,1,$1+$1,$4,$5,$6,$7,0*
20,1,$1+$1,$6,$7,$8,$9,0*
20,1,$1+$1,$8,$9,$2,$3,0*%
G04 Aperture macros list end*
%ADD10C,1.700000*%
%ADD11C,4.000000*%
%ADD12C,2.200000*%
%ADD13R,1.600000X1.600000*%
%ADD14C,1.600000*%
%ADD15C,0.800000*%
%ADD16C,5.400000*%
%ADD17R,1.750000X1.750000*%
%ADD18C,1.750000*%
%ADD19C,2.700000*%
%ADD20C,3.050000*%
%ADD21RoundRect,0.218750X0.256250X-0.218750X0.256250X0.218750X-0.256250X0.218750X-0.256250X-0.218750X0*%
%ADD22RoundRect,0.218750X-0.256250X0.218750X-0.256250X-0.218750X0.256250X-0.218750X0.256250X0.218750X0*%
G04 APERTURE END LIST*
D10*
%TO.C,SW17*%
X120915000Y70875000D03*
D11*
X125995000Y70875000D03*
D10*
X131075000Y70875000D03*
D12*
X128535000Y75955000D03*
X122185000Y73415000D03*
%TD*%
D10*
%TO.C,SW14*%
X100715000Y50675000D03*
D11*
X105795000Y50675000D03*
D10*
X110875000Y50675000D03*
D12*
X108335000Y55755000D03*
X101985000Y53215000D03*
%TD*%
D13*
%TO.C,U4*%
X160429999Y77874999D03*
D14*
X160430000Y75335000D03*
X160430000Y72795000D03*
X160430000Y70255000D03*
X160430000Y67715000D03*
X160430000Y65175000D03*
X160430000Y62635000D03*
X160430000Y60095000D03*
X160430000Y57555000D03*
X160430000Y55015000D03*
X160430000Y52475000D03*
X160430000Y49935000D03*
X175670000Y49935000D03*
X175670000Y52475000D03*
X175670000Y55015000D03*
X175670000Y57555000D03*
X175670000Y60095000D03*
X175670000Y62635000D03*
X175670000Y65175000D03*
X175670000Y67715000D03*
X175670000Y70255000D03*
X175670000Y72795000D03*
X175670000Y75335000D03*
X175670000Y77875000D03*
%TD*%
D10*
%TO.C,SW12*%
X80515000Y10275000D03*
D11*
X85595000Y10275000D03*
D10*
X90675000Y10275000D03*
D12*
X88135000Y15355000D03*
X81785000Y12815000D03*
%TD*%
D10*
%TO.C,SW15*%
X100715000Y30475000D03*
D11*
X105795000Y30475000D03*
D10*
X110875000Y30475000D03*
D12*
X108335000Y35555000D03*
X101985000Y33015000D03*
%TD*%
D10*
%TO.C,SW1*%
X40115000Y70875000D03*
D11*
X45195000Y70875000D03*
D10*
X50275000Y70875000D03*
D12*
X47735000Y75955000D03*
X41385000Y73415000D03*
%TD*%
D10*
%TO.C,SW4*%
X40115000Y10275000D03*
D11*
X45195000Y10275000D03*
D10*
X50275000Y10275000D03*
D12*
X47735000Y15355000D03*
X41385000Y12815000D03*
%TD*%
D15*
%TO.C,H2*%
X113900000Y60825000D03*
X114493109Y62256891D03*
X114493109Y59393109D03*
X115925000Y62850000D03*
D16*
X115925000Y60825000D03*
D15*
X115925000Y58800000D03*
X117356891Y62256891D03*
X117356891Y59393109D03*
X117950000Y60825000D03*
%TD*%
D10*
%TO.C,SW19*%
X120915000Y30475000D03*
D11*
X125995000Y30475000D03*
D10*
X131075000Y30475000D03*
D12*
X128535000Y35555000D03*
X122185000Y33015000D03*
%TD*%
D10*
%TO.C,SW6*%
X60315000Y50675000D03*
D11*
X65395000Y50675000D03*
D10*
X70475000Y50675000D03*
D12*
X67935000Y55755000D03*
X61585000Y53215000D03*
%TD*%
D10*
%TO.C,SW13*%
X100715000Y70875000D03*
D11*
X105795000Y70875000D03*
D10*
X110875000Y70875000D03*
D12*
X108335000Y75955000D03*
X101985000Y73415000D03*
%TD*%
D10*
%TO.C,SW16*%
X100715000Y10275000D03*
D11*
X105795000Y10275000D03*
D10*
X110875000Y10275000D03*
D12*
X108335000Y15355000D03*
X101985000Y12815000D03*
%TD*%
D10*
%TO.C,SW18*%
X120915000Y50675000D03*
D11*
X125995000Y50675000D03*
D10*
X131075000Y50675000D03*
D12*
X128535000Y55755000D03*
X122185000Y53215000D03*
%TD*%
D10*
%TO.C,SW20*%
X120915000Y10275000D03*
D11*
X125995000Y10275000D03*
D10*
X131075000Y10275000D03*
D12*
X128535000Y15355000D03*
X122185000Y12815000D03*
%TD*%
D10*
%TO.C,SW3*%
X40115000Y30475000D03*
D11*
X45195000Y30475000D03*
D10*
X50275000Y30475000D03*
D12*
X47735000Y35555000D03*
X41385000Y33015000D03*
%TD*%
D15*
%TO.C,H3*%
X113925000Y20225000D03*
X114518109Y21656891D03*
X114518109Y18793109D03*
X115950000Y22250000D03*
D16*
X115950000Y20225000D03*
D15*
X115950000Y18200000D03*
X117381891Y21656891D03*
X117381891Y18793109D03*
X117975000Y20225000D03*
%TD*%
D10*
%TO.C,SW5*%
X60315000Y70875000D03*
D11*
X65395000Y70875000D03*
D10*
X70475000Y70875000D03*
D12*
X67935000Y75955000D03*
X61585000Y73415000D03*
%TD*%
D10*
%TO.C,SW11*%
X80515000Y30475000D03*
D11*
X85595000Y30475000D03*
D10*
X90675000Y30475000D03*
D12*
X88135000Y35555000D03*
X81785000Y33015000D03*
%TD*%
D17*
%TO.C,R28*%
X8199999Y3104999D03*
D18*
X11700000Y3105000D03*
X8200000Y76605000D03*
D19*
X14150000Y7255000D03*
X5750000Y8455000D03*
X5750000Y71255000D03*
X14150000Y72455000D03*
%TD*%
D10*
%TO.C,SW21*%
X141115000Y70875000D03*
D11*
X146195000Y70875000D03*
D10*
X151275000Y70875000D03*
D12*
X148735000Y75955000D03*
X142385000Y73415000D03*
%TD*%
D10*
%TO.C,SW8*%
X60315000Y10275000D03*
D11*
X65395000Y10275000D03*
D10*
X70475000Y10275000D03*
D12*
X67935000Y15355000D03*
X61585000Y12815000D03*
%TD*%
D15*
%TO.C,H1*%
X53475000Y61125000D03*
X54068109Y62556891D03*
X54068109Y59693109D03*
X55500000Y63150000D03*
D16*
X55500000Y61125000D03*
D15*
X55500000Y59100000D03*
X56931891Y62556891D03*
X56931891Y59693109D03*
X57525000Y61125000D03*
%TD*%
%TO.C,H4*%
X53506891Y20306891D03*
X54100000Y21738782D03*
X54100000Y18875000D03*
X55531891Y22331891D03*
D16*
X55531891Y20306891D03*
D15*
X55531891Y18281891D03*
X56963782Y21738782D03*
X56963782Y18875000D03*
X57556891Y20306891D03*
%TD*%
D10*
%TO.C,SW2*%
X40115000Y50675000D03*
D11*
X45195000Y50675000D03*
D10*
X50275000Y50675000D03*
D12*
X47735000Y55755000D03*
X41385000Y53215000D03*
%TD*%
D10*
%TO.C,SW10*%
X80515000Y50675000D03*
D11*
X85595000Y50675000D03*
D10*
X90675000Y50675000D03*
D12*
X88135000Y55755000D03*
X81785000Y53215000D03*
%TD*%
D10*
%TO.C,SW9*%
X80515000Y70875000D03*
D11*
X85595000Y70875000D03*
D10*
X90675000Y70875000D03*
D12*
X88135000Y75955000D03*
X81785000Y73415000D03*
%TD*%
D10*
%TO.C,SW7*%
X60315000Y30475000D03*
D11*
X65395000Y30475000D03*
D10*
X70475000Y30475000D03*
D12*
X67935000Y35555000D03*
X61585000Y33015000D03*
%TD*%
D20*
%TO.C,SW23*%
X139575000Y31875000D03*
X139575000Y8075000D03*
D10*
X141495000Y19975000D03*
D11*
X146575000Y19975000D03*
D10*
X151655000Y19975000D03*
D11*
X154815000Y31875000D03*
X154815000Y8075000D03*
D12*
X149115000Y25055000D03*
X142765000Y22515000D03*
%TD*%
D17*
%TO.C,R24*%
X23974999Y3174999D03*
D18*
X27475000Y3175000D03*
X23975000Y76675000D03*
D19*
X29925000Y7325000D03*
X21525000Y8525000D03*
X21525000Y71325000D03*
X29925000Y72525000D03*
%TD*%
D10*
%TO.C,SW22*%
X141115000Y50675000D03*
D11*
X146195000Y50675000D03*
D10*
X151275000Y50675000D03*
D12*
X148735000Y55755000D03*
X142385000Y53215000D03*
%TD*%
D21*
%TO.C,D23*%
X115900000Y10325000D03*
X115900000Y11900000D03*
%TD*%
%TO.C,D10*%
X136025000Y70775000D03*
X136025000Y72350000D03*
%TD*%
%TO.C,D5*%
X55275000Y50700000D03*
X55275000Y52275000D03*
%TD*%
%TO.C,D14*%
X115850000Y30400000D03*
X115850000Y31975000D03*
%TD*%
%TO.C,D22*%
X95725000Y10175000D03*
X95725000Y11750000D03*
%TD*%
%TO.C,D21*%
X75400000Y10150000D03*
X75400000Y11725000D03*
%TD*%
%TO.C,D8*%
X95775000Y70800000D03*
X95775000Y72375000D03*
%TD*%
%TO.C,D17*%
X55175000Y30550000D03*
X55175000Y32125000D03*
%TD*%
%TO.C,D19*%
X34575000Y10250000D03*
X34575000Y11825000D03*
%TD*%
%TO.C,D11*%
X136025000Y50675000D03*
X136025000Y52250000D03*
%TD*%
%TO.C,D3*%
X75500000Y70900000D03*
X75500000Y72475000D03*
%TD*%
%TO.C,D16*%
X75550000Y30450000D03*
X75550000Y32025000D03*
%TD*%
%TO.C,D20*%
X55375000Y10225000D03*
X55375000Y11800000D03*
%TD*%
%TO.C,D2*%
X55400000Y70800000D03*
X55400000Y72375000D03*
%TD*%
%TO.C,D18*%
X34650000Y30375000D03*
X34650000Y31950000D03*
%TD*%
%TO.C,D4*%
X34775000Y50650000D03*
X34775000Y52225000D03*
%TD*%
%TO.C,D12*%
X115850000Y50600000D03*
X115850000Y52175000D03*
%TD*%
%TO.C,D15*%
X95700000Y30450000D03*
X95700000Y32025000D03*
%TD*%
%TO.C,D1*%
X34725000Y70825000D03*
X34725000Y72400000D03*
%TD*%
%TO.C,D7*%
X95725000Y50625000D03*
X95725000Y52200000D03*
%TD*%
%TO.C,D6*%
X75500000Y50650000D03*
X75500000Y52225000D03*
%TD*%
%TO.C,D9*%
X116025000Y70850000D03*
X116025000Y72425000D03*
%TD*%
D22*
%TO.C,D13*%
X136075000Y25000000D03*
X136075000Y23425000D03*
%TD*%
M02*
