%TF.GenerationSoftware,KiCad,Pcbnew,(7.0.0)*%
%TF.CreationDate,2024-11-11T13:12:43+03:00*%
%TF.ProjectId,04. Keyboard 6x4 Matrix,30342e20-4b65-4796-926f-617264203678,rev?*%
%TF.SameCoordinates,PX24bd848PY898b2e8*%
%TF.FileFunction,Drillmap*%
%TF.FilePolarity,Positive*%
%FSLAX45Y45*%
G04 Gerber Fmt 4.5, Leading zero omitted, Abs format (unit mm)*
G04 Created by KiCad (PCBNEW (7.0.0)) date 2024-11-11 13:12:43*
%MOMM*%
%LPD*%
G01*
G04 APERTURE LIST*
%ADD10C,0.100000*%
%ADD11C,0.200000*%
%ADD12C,0.040000*%
%ADD13C,0.050000*%
%ADD14C,0.110000*%
%ADD15C,0.120000*%
%ADD16C,0.150000*%
%ADD17C,0.170000*%
%ADD18C,0.270000*%
G04 APERTURE END LIST*
D10*
X711Y8112500D02*
X711Y100000D01*
X100711Y0D02*
X17743579Y1079D01*
X17743579Y8213579D02*
X100711Y8212500D01*
X17843579Y101079D02*
X17843579Y8113579D01*
X17843579Y8113579D02*
G75*
G03*
X17743579Y8213579I-99999J1D01*
G01*
X710Y100000D02*
G75*
G03*
X100711Y0I100000J0D01*
G01*
X17743579Y1081D02*
G75*
G03*
X17843579Y101079I1J99999D01*
G01*
X100711Y8212499D02*
G75*
G03*
X711Y8112500I-1J-99999D01*
G01*
D11*
D12*
X607500Y8032500D02*
X647500Y7992500D01*
X647500Y8032500D02*
X607500Y7992500D01*
X3290000Y7817500D02*
X3330000Y7777500D01*
X3330000Y7817500D02*
X3290000Y7777500D01*
X17425000Y7987500D02*
X17465000Y7947500D01*
X17465000Y7987500D02*
X17425000Y7947500D01*
X17715000Y8135000D02*
X17755000Y8095000D01*
X17755000Y8135000D02*
X17715000Y8095000D01*
D13*
X5372500Y6112500D02*
G75*
G03*
X5372500Y6112500I-25000J0D01*
G01*
X5375689Y2030689D02*
G75*
G03*
X5375689Y2030689I-25000J0D01*
G01*
X5431811Y6255689D02*
G75*
G03*
X5431811Y6255689I-25000J0D01*
G01*
X5431811Y5969311D02*
G75*
G03*
X5431811Y5969311I-25000J0D01*
G01*
X5435000Y2173878D02*
G75*
G03*
X5435000Y2173878I-25000J0D01*
G01*
X5435000Y1887500D02*
G75*
G03*
X5435000Y1887500I-25000J0D01*
G01*
X5575000Y6315000D02*
G75*
G03*
X5575000Y6315000I-25000J0D01*
G01*
X5575000Y5910000D02*
G75*
G03*
X5575000Y5910000I-25000J0D01*
G01*
X5578189Y2233189D02*
G75*
G03*
X5578189Y2233189I-25000J0D01*
G01*
X5578189Y1828189D02*
G75*
G03*
X5578189Y1828189I-25000J0D01*
G01*
X5718189Y6255689D02*
G75*
G03*
X5718189Y6255689I-25000J0D01*
G01*
X5718189Y5969311D02*
G75*
G03*
X5718189Y5969311I-25000J0D01*
G01*
X5721378Y2173878D02*
G75*
G03*
X5721378Y2173878I-25000J0D01*
G01*
X5721378Y1887500D02*
G75*
G03*
X5721378Y1887500I-25000J0D01*
G01*
X5777500Y6112500D02*
G75*
G03*
X5777500Y6112500I-25000J0D01*
G01*
X5780689Y2030689D02*
G75*
G03*
X5780689Y2030689I-25000J0D01*
G01*
X11415000Y6082500D02*
G75*
G03*
X11415000Y6082500I-25000J0D01*
G01*
X11417500Y2022500D02*
G75*
G03*
X11417500Y2022500I-25000J0D01*
G01*
X11474311Y6225689D02*
G75*
G03*
X11474311Y6225689I-25000J0D01*
G01*
X11474311Y5939311D02*
G75*
G03*
X11474311Y5939311I-25000J0D01*
G01*
X11476811Y2165689D02*
G75*
G03*
X11476811Y2165689I-25000J0D01*
G01*
X11476811Y1879311D02*
G75*
G03*
X11476811Y1879311I-25000J0D01*
G01*
X11617500Y6285000D02*
G75*
G03*
X11617500Y6285000I-25000J0D01*
G01*
X11617500Y5880000D02*
G75*
G03*
X11617500Y5880000I-25000J0D01*
G01*
X11620000Y2225000D02*
G75*
G03*
X11620000Y2225000I-25000J0D01*
G01*
X11620000Y1820000D02*
G75*
G03*
X11620000Y1820000I-25000J0D01*
G01*
X11760689Y6225689D02*
G75*
G03*
X11760689Y6225689I-25000J0D01*
G01*
X11760689Y5939311D02*
G75*
G03*
X11760689Y5939311I-25000J0D01*
G01*
X11763189Y2165689D02*
G75*
G03*
X11763189Y2165689I-25000J0D01*
G01*
X11763189Y1879311D02*
G75*
G03*
X11763189Y1879311I-25000J0D01*
G01*
X11820000Y6082500D02*
G75*
G03*
X11820000Y6082500I-25000J0D01*
G01*
X11822500Y2022500D02*
G75*
G03*
X11822500Y2022500I-25000J0D01*
G01*
D14*
X16043000Y7842500D02*
X16043000Y7732500D01*
X15988000Y7787500D02*
X16098000Y7787500D01*
X16043000Y7588500D02*
X16043000Y7478500D01*
X15988000Y7533500D02*
X16098000Y7533500D01*
X16043000Y7334500D02*
X16043000Y7224500D01*
X15988000Y7279500D02*
X16098000Y7279500D01*
X16043000Y7080500D02*
X16043000Y6970500D01*
X15988000Y7025500D02*
X16098000Y7025500D01*
X16043000Y6826500D02*
X16043000Y6716500D01*
X15988000Y6771500D02*
X16098000Y6771500D01*
X16043000Y6572500D02*
X16043000Y6462500D01*
X15988000Y6517500D02*
X16098000Y6517500D01*
X16043000Y6318500D02*
X16043000Y6208500D01*
X15988000Y6263500D02*
X16098000Y6263500D01*
X16043000Y6064500D02*
X16043000Y5954500D01*
X15988000Y6009500D02*
X16098000Y6009500D01*
X16043000Y5810500D02*
X16043000Y5700500D01*
X15988000Y5755500D02*
X16098000Y5755500D01*
X16043000Y5556500D02*
X16043000Y5446500D01*
X15988000Y5501500D02*
X16098000Y5501500D01*
X16043000Y5302500D02*
X16043000Y5192500D01*
X15988000Y5247500D02*
X16098000Y5247500D01*
X16043000Y5048500D02*
X16043000Y4938500D01*
X15988000Y4993500D02*
X16098000Y4993500D01*
X17567000Y7842500D02*
X17567000Y7732500D01*
X17512000Y7787500D02*
X17622000Y7787500D01*
X17567000Y7588500D02*
X17567000Y7478500D01*
X17512000Y7533500D02*
X17622000Y7533500D01*
X17567000Y7334500D02*
X17567000Y7224500D01*
X17512000Y7279500D02*
X17622000Y7279500D01*
X17567000Y7080500D02*
X17567000Y6970500D01*
X17512000Y7025500D02*
X17622000Y7025500D01*
X17567000Y6826500D02*
X17567000Y6716500D01*
X17512000Y6771500D02*
X17622000Y6771500D01*
X17567000Y6572500D02*
X17567000Y6462500D01*
X17512000Y6517500D02*
X17622000Y6517500D01*
X17567000Y6318500D02*
X17567000Y6208500D01*
X17512000Y6263500D02*
X17622000Y6263500D01*
X17567000Y6064500D02*
X17567000Y5954500D01*
X17512000Y6009500D02*
X17622000Y6009500D01*
X17567000Y5810500D02*
X17567000Y5700500D01*
X17512000Y5755500D02*
X17622000Y5755500D01*
X17567000Y5556500D02*
X17567000Y5446500D01*
X17512000Y5501500D02*
X17622000Y5501500D01*
X17567000Y5302500D02*
X17567000Y5192500D01*
X17512000Y5247500D02*
X17622000Y5247500D01*
X17567000Y5048500D02*
X17567000Y4938500D01*
X17512000Y4993500D02*
X17622000Y4993500D01*
D15*
X862427Y7618073D02*
X862427Y7702927D01*
X777573Y7702927D01*
X777573Y7618073D01*
X862427Y7618073D01*
X862427Y268073D02*
X862427Y352927D01*
X777573Y352927D01*
X777573Y268073D01*
X862427Y268073D01*
X1212427Y268073D02*
X1212427Y352927D01*
X1127573Y352927D01*
X1127573Y268073D01*
X1212427Y268073D01*
X2439927Y7625073D02*
X2439927Y7709927D01*
X2355073Y7709927D01*
X2355073Y7625073D01*
X2439927Y7625073D01*
X2439927Y275073D02*
X2439927Y359927D01*
X2355073Y359927D01*
X2355073Y275073D01*
X2439927Y275073D01*
X2789927Y275073D02*
X2789927Y359927D01*
X2705073Y359927D01*
X2705073Y275073D01*
X2789927Y275073D01*
D16*
X4138500Y7266500D02*
X4213500Y7341500D01*
X4138500Y7416500D01*
X4063500Y7341500D01*
X4138500Y7266500D01*
X4138500Y5246500D02*
X4213500Y5321500D01*
X4138500Y5396500D01*
X4063500Y5321500D01*
X4138500Y5246500D01*
X4138500Y3226500D02*
X4213500Y3301500D01*
X4138500Y3376500D01*
X4063500Y3301500D01*
X4138500Y3226500D01*
X4138500Y1206500D02*
X4213500Y1281500D01*
X4138500Y1356500D01*
X4063500Y1281500D01*
X4138500Y1206500D01*
X4773500Y7520500D02*
X4848500Y7595500D01*
X4773500Y7670500D01*
X4698500Y7595500D01*
X4773500Y7520500D01*
X4773500Y5500500D02*
X4848500Y5575500D01*
X4773500Y5650500D01*
X4698500Y5575500D01*
X4773500Y5500500D01*
X4773500Y3480500D02*
X4848500Y3555500D01*
X4773500Y3630500D01*
X4698500Y3555500D01*
X4773500Y3480500D01*
X4773500Y1460500D02*
X4848500Y1535500D01*
X4773500Y1610500D01*
X4698500Y1535500D01*
X4773500Y1460500D01*
X6158500Y7266500D02*
X6233500Y7341500D01*
X6158500Y7416500D01*
X6083500Y7341500D01*
X6158500Y7266500D01*
X6158500Y5246500D02*
X6233500Y5321500D01*
X6158500Y5396500D01*
X6083500Y5321500D01*
X6158500Y5246500D01*
X6158500Y3226500D02*
X6233500Y3301500D01*
X6158500Y3376500D01*
X6083500Y3301500D01*
X6158500Y3226500D01*
X6158500Y1206500D02*
X6233500Y1281500D01*
X6158500Y1356500D01*
X6083500Y1281500D01*
X6158500Y1206500D01*
X6793500Y7520500D02*
X6868500Y7595500D01*
X6793500Y7670500D01*
X6718500Y7595500D01*
X6793500Y7520500D01*
X6793500Y5500500D02*
X6868500Y5575500D01*
X6793500Y5650500D01*
X6718500Y5575500D01*
X6793500Y5500500D01*
X6793500Y3480500D02*
X6868500Y3555500D01*
X6793500Y3630500D01*
X6718500Y3555500D01*
X6793500Y3480500D01*
X6793500Y1460500D02*
X6868500Y1535500D01*
X6793500Y1610500D01*
X6718500Y1535500D01*
X6793500Y1460500D01*
X8178500Y7266500D02*
X8253500Y7341500D01*
X8178500Y7416500D01*
X8103500Y7341500D01*
X8178500Y7266500D01*
X8178500Y5246500D02*
X8253500Y5321500D01*
X8178500Y5396500D01*
X8103500Y5321500D01*
X8178500Y5246500D01*
X8178500Y3226500D02*
X8253500Y3301500D01*
X8178500Y3376500D01*
X8103500Y3301500D01*
X8178500Y3226500D01*
X8178500Y1206500D02*
X8253500Y1281500D01*
X8178500Y1356500D01*
X8103500Y1281500D01*
X8178500Y1206500D01*
X8813500Y7520500D02*
X8888500Y7595500D01*
X8813500Y7670500D01*
X8738500Y7595500D01*
X8813500Y7520500D01*
X8813500Y5500500D02*
X8888500Y5575500D01*
X8813500Y5650500D01*
X8738500Y5575500D01*
X8813500Y5500500D01*
X8813500Y3480500D02*
X8888500Y3555500D01*
X8813500Y3630500D01*
X8738500Y3555500D01*
X8813500Y3480500D01*
X8813500Y1460500D02*
X8888500Y1535500D01*
X8813500Y1610500D01*
X8738500Y1535500D01*
X8813500Y1460500D01*
X10198500Y7266500D02*
X10273500Y7341500D01*
X10198500Y7416500D01*
X10123500Y7341500D01*
X10198500Y7266500D01*
X10198500Y5246500D02*
X10273500Y5321500D01*
X10198500Y5396500D01*
X10123500Y5321500D01*
X10198500Y5246500D01*
X10198500Y3226500D02*
X10273500Y3301500D01*
X10198500Y3376500D01*
X10123500Y3301500D01*
X10198500Y3226500D01*
X10198500Y1206500D02*
X10273500Y1281500D01*
X10198500Y1356500D01*
X10123500Y1281500D01*
X10198500Y1206500D01*
X10833500Y7520500D02*
X10908500Y7595500D01*
X10833500Y7670500D01*
X10758500Y7595500D01*
X10833500Y7520500D01*
X10833500Y5500500D02*
X10908500Y5575500D01*
X10833500Y5650500D01*
X10758500Y5575500D01*
X10833500Y5500500D01*
X10833500Y3480500D02*
X10908500Y3555500D01*
X10833500Y3630500D01*
X10758500Y3555500D01*
X10833500Y3480500D01*
X10833500Y1460500D02*
X10908500Y1535500D01*
X10833500Y1610500D01*
X10758500Y1535500D01*
X10833500Y1460500D01*
X12218500Y7266500D02*
X12293500Y7341500D01*
X12218500Y7416500D01*
X12143500Y7341500D01*
X12218500Y7266500D01*
X12218500Y5246500D02*
X12293500Y5321500D01*
X12218500Y5396500D01*
X12143500Y5321500D01*
X12218500Y5246500D01*
X12218500Y3226500D02*
X12293500Y3301500D01*
X12218500Y3376500D01*
X12143500Y3301500D01*
X12218500Y3226500D01*
X12218500Y1206500D02*
X12293500Y1281500D01*
X12218500Y1356500D01*
X12143500Y1281500D01*
X12218500Y1206500D01*
X12853500Y7520500D02*
X12928500Y7595500D01*
X12853500Y7670500D01*
X12778500Y7595500D01*
X12853500Y7520500D01*
X12853500Y5500500D02*
X12928500Y5575500D01*
X12853500Y5650500D01*
X12778500Y5575500D01*
X12853500Y5500500D01*
X12853500Y3480500D02*
X12928500Y3555500D01*
X12853500Y3630500D01*
X12778500Y3555500D01*
X12853500Y3480500D01*
X12853500Y1460500D02*
X12928500Y1535500D01*
X12853500Y1610500D01*
X12778500Y1535500D01*
X12853500Y1460500D01*
X14238500Y7266500D02*
X14313500Y7341500D01*
X14238500Y7416500D01*
X14163500Y7341500D01*
X14238500Y7266500D01*
X14238500Y5246500D02*
X14313500Y5321500D01*
X14238500Y5396500D01*
X14163500Y5321500D01*
X14238500Y5246500D01*
X14276500Y2176500D02*
X14351500Y2251500D01*
X14276500Y2326500D01*
X14201500Y2251500D01*
X14276500Y2176500D01*
X14873500Y7520500D02*
X14948500Y7595500D01*
X14873500Y7670500D01*
X14798500Y7595500D01*
X14873500Y7520500D01*
X14873500Y5500500D02*
X14948500Y5575500D01*
X14873500Y5650500D01*
X14798500Y5575500D01*
X14873500Y5500500D01*
X14911500Y2430500D02*
X14986500Y2505500D01*
X14911500Y2580500D01*
X14836500Y2505500D01*
X14911500Y2430500D01*
D17*
X490000Y7210500D02*
X660000Y7040500D01*
X660000Y7210500D02*
X490000Y7040500D01*
X660000Y7125500D02*
G75*
G03*
X660000Y7125500I-85000J0D01*
G01*
X490000Y930500D02*
X660000Y760500D01*
X660000Y930500D02*
X490000Y760500D01*
X660000Y845500D02*
G75*
G03*
X660000Y845500I-85000J0D01*
G01*
X1330000Y7330500D02*
X1500000Y7160500D01*
X1500000Y7330500D02*
X1330000Y7160500D01*
X1500000Y7245500D02*
G75*
G03*
X1500000Y7245500I-85000J0D01*
G01*
X1330000Y810500D02*
X1500000Y640500D01*
X1500000Y810500D02*
X1330000Y640500D01*
X1500000Y725500D02*
G75*
G03*
X1500000Y725500I-85000J0D01*
G01*
X2067500Y7217500D02*
X2237500Y7047500D01*
X2237500Y7217500D02*
X2067500Y7047500D01*
X2237500Y7132500D02*
G75*
G03*
X2237500Y7132500I-85000J0D01*
G01*
X2067500Y937500D02*
X2237500Y767500D01*
X2237500Y937500D02*
X2067500Y767500D01*
X2237500Y852500D02*
G75*
G03*
X2237500Y852500I-85000J0D01*
G01*
X2907500Y7337500D02*
X3077500Y7167500D01*
X3077500Y7337500D02*
X2907500Y7167500D01*
X3077500Y7252500D02*
G75*
G03*
X3077500Y7252500I-85000J0D01*
G01*
X2907500Y817500D02*
X3077500Y647500D01*
X3077500Y817500D02*
X2907500Y647500D01*
X3077500Y732500D02*
G75*
G03*
X3077500Y732500I-85000J0D01*
G01*
D18*
X5415000Y6247500D02*
X5685000Y5977500D01*
X5685000Y6247500D02*
X5415000Y5977500D01*
X5550000Y6247500D02*
X5550000Y5977500D01*
X5415000Y6112500D02*
X5685000Y6112500D01*
X5418189Y2165689D02*
X5688189Y1895689D01*
X5688189Y2165689D02*
X5418189Y1895689D01*
X5553189Y2165689D02*
X5553189Y1895689D01*
X5418189Y2030689D02*
X5688189Y2030689D01*
X11457500Y6217500D02*
X11727500Y5947500D01*
X11727500Y6217500D02*
X11457500Y5947500D01*
X11592500Y6217500D02*
X11592500Y5947500D01*
X11457500Y6082500D02*
X11727500Y6082500D01*
X11460000Y2157500D02*
X11730000Y1887500D01*
X11730000Y2157500D02*
X11460000Y1887500D01*
X11595000Y2157500D02*
X11595000Y1887500D01*
X11460000Y2022500D02*
X11730000Y2022500D01*
D11*
X243330Y-298476D02*
X243330Y-98476D01*
X243330Y-98476D02*
X290949Y-98476D01*
X290949Y-98476D02*
X319521Y-108000D01*
X319521Y-108000D02*
X338568Y-127048D01*
X338568Y-127048D02*
X348092Y-146095D01*
X348092Y-146095D02*
X357616Y-184190D01*
X357616Y-184190D02*
X357616Y-212762D01*
X357616Y-212762D02*
X348092Y-250857D01*
X348092Y-250857D02*
X338568Y-269905D01*
X338568Y-269905D02*
X319521Y-288952D01*
X319521Y-288952D02*
X290949Y-298476D01*
X290949Y-298476D02*
X243330Y-298476D01*
X443330Y-298476D02*
X443330Y-165143D01*
X443330Y-203238D02*
X452854Y-184190D01*
X452854Y-184190D02*
X462378Y-174667D01*
X462378Y-174667D02*
X481425Y-165143D01*
X481425Y-165143D02*
X500473Y-165143D01*
X567140Y-298476D02*
X567140Y-165143D01*
X567140Y-98476D02*
X557616Y-108000D01*
X557616Y-108000D02*
X567140Y-117524D01*
X567140Y-117524D02*
X576664Y-108000D01*
X576664Y-108000D02*
X567140Y-98476D01*
X567140Y-98476D02*
X567140Y-117524D01*
X690949Y-298476D02*
X671902Y-288952D01*
X671902Y-288952D02*
X662378Y-269905D01*
X662378Y-269905D02*
X662378Y-98476D01*
X795711Y-298476D02*
X776663Y-288952D01*
X776663Y-288952D02*
X767140Y-269905D01*
X767140Y-269905D02*
X767140Y-98476D01*
X991902Y-298476D02*
X991902Y-98476D01*
X991902Y-98476D02*
X1058568Y-241333D01*
X1058568Y-241333D02*
X1125235Y-98476D01*
X1125235Y-98476D02*
X1125235Y-298476D01*
X1306187Y-298476D02*
X1306187Y-193714D01*
X1306187Y-193714D02*
X1296664Y-174667D01*
X1296664Y-174667D02*
X1277616Y-165143D01*
X1277616Y-165143D02*
X1239521Y-165143D01*
X1239521Y-165143D02*
X1220473Y-174667D01*
X1306187Y-288952D02*
X1287140Y-298476D01*
X1287140Y-298476D02*
X1239521Y-298476D01*
X1239521Y-298476D02*
X1220473Y-288952D01*
X1220473Y-288952D02*
X1210949Y-269905D01*
X1210949Y-269905D02*
X1210949Y-250857D01*
X1210949Y-250857D02*
X1220473Y-231809D01*
X1220473Y-231809D02*
X1239521Y-222286D01*
X1239521Y-222286D02*
X1287140Y-222286D01*
X1287140Y-222286D02*
X1306187Y-212762D01*
X1401425Y-165143D02*
X1401425Y-365143D01*
X1401425Y-174667D02*
X1420473Y-165143D01*
X1420473Y-165143D02*
X1458568Y-165143D01*
X1458568Y-165143D02*
X1477616Y-174667D01*
X1477616Y-174667D02*
X1487140Y-184190D01*
X1487140Y-184190D02*
X1496663Y-203238D01*
X1496663Y-203238D02*
X1496663Y-260381D01*
X1496663Y-260381D02*
X1487140Y-279429D01*
X1487140Y-279429D02*
X1477616Y-288952D01*
X1477616Y-288952D02*
X1458568Y-298476D01*
X1458568Y-298476D02*
X1420473Y-298476D01*
X1420473Y-298476D02*
X1401425Y-288952D01*
X1582378Y-279429D02*
X1591902Y-288952D01*
X1591902Y-288952D02*
X1582378Y-298476D01*
X1582378Y-298476D02*
X1572854Y-288952D01*
X1572854Y-288952D02*
X1582378Y-279429D01*
X1582378Y-279429D02*
X1582378Y-298476D01*
X1582378Y-174667D02*
X1591902Y-184190D01*
X1591902Y-184190D02*
X1582378Y-193714D01*
X1582378Y-193714D02*
X1572854Y-184190D01*
X1572854Y-184190D02*
X1582378Y-174667D01*
X1582378Y-174667D02*
X1582378Y-193714D01*
D12*
X-44289Y-625000D02*
X-4289Y-665000D01*
X-4289Y-625000D02*
X-44289Y-665000D01*
D11*
X281425Y-518476D02*
X300473Y-518476D01*
X300473Y-518476D02*
X319521Y-528000D01*
X319521Y-528000D02*
X329045Y-537524D01*
X329045Y-537524D02*
X338568Y-556571D01*
X338568Y-556571D02*
X348092Y-594667D01*
X348092Y-594667D02*
X348092Y-642286D01*
X348092Y-642286D02*
X338568Y-680381D01*
X338568Y-680381D02*
X329045Y-699428D01*
X329045Y-699428D02*
X319521Y-708952D01*
X319521Y-708952D02*
X300473Y-718476D01*
X300473Y-718476D02*
X281425Y-718476D01*
X281425Y-718476D02*
X262378Y-708952D01*
X262378Y-708952D02*
X252854Y-699428D01*
X252854Y-699428D02*
X243330Y-680381D01*
X243330Y-680381D02*
X233806Y-642286D01*
X233806Y-642286D02*
X233806Y-594667D01*
X233806Y-594667D02*
X243330Y-556571D01*
X243330Y-556571D02*
X252854Y-537524D01*
X252854Y-537524D02*
X262378Y-528000D01*
X262378Y-528000D02*
X281425Y-518476D01*
X433806Y-699428D02*
X443330Y-708952D01*
X443330Y-708952D02*
X433806Y-718476D01*
X433806Y-718476D02*
X424283Y-708952D01*
X424283Y-708952D02*
X433806Y-699428D01*
X433806Y-699428D02*
X433806Y-718476D01*
X614759Y-585143D02*
X614759Y-718476D01*
X567140Y-508952D02*
X519521Y-651810D01*
X519521Y-651810D02*
X643330Y-651810D01*
X757616Y-518476D02*
X776664Y-518476D01*
X776664Y-518476D02*
X795711Y-528000D01*
X795711Y-528000D02*
X805235Y-537524D01*
X805235Y-537524D02*
X814759Y-556571D01*
X814759Y-556571D02*
X824283Y-594667D01*
X824283Y-594667D02*
X824283Y-642286D01*
X824283Y-642286D02*
X814759Y-680381D01*
X814759Y-680381D02*
X805235Y-699428D01*
X805235Y-699428D02*
X795711Y-708952D01*
X795711Y-708952D02*
X776664Y-718476D01*
X776664Y-718476D02*
X757616Y-718476D01*
X757616Y-718476D02*
X738568Y-708952D01*
X738568Y-708952D02*
X729044Y-699428D01*
X729044Y-699428D02*
X719521Y-680381D01*
X719521Y-680381D02*
X709997Y-642286D01*
X709997Y-642286D02*
X709997Y-594667D01*
X709997Y-594667D02*
X719521Y-556571D01*
X719521Y-556571D02*
X729044Y-537524D01*
X729044Y-537524D02*
X738568Y-528000D01*
X738568Y-528000D02*
X757616Y-518476D01*
X948092Y-518476D02*
X967140Y-518476D01*
X967140Y-518476D02*
X986187Y-528000D01*
X986187Y-528000D02*
X995711Y-537524D01*
X995711Y-537524D02*
X1005235Y-556571D01*
X1005235Y-556571D02*
X1014759Y-594667D01*
X1014759Y-594667D02*
X1014759Y-642286D01*
X1014759Y-642286D02*
X1005235Y-680381D01*
X1005235Y-680381D02*
X995711Y-699428D01*
X995711Y-699428D02*
X986187Y-708952D01*
X986187Y-708952D02*
X967140Y-718476D01*
X967140Y-718476D02*
X948092Y-718476D01*
X948092Y-718476D02*
X929044Y-708952D01*
X929044Y-708952D02*
X919521Y-699428D01*
X919521Y-699428D02*
X909997Y-680381D01*
X909997Y-680381D02*
X900473Y-642286D01*
X900473Y-642286D02*
X900473Y-594667D01*
X900473Y-594667D02*
X909997Y-556571D01*
X909997Y-556571D02*
X919521Y-537524D01*
X919521Y-537524D02*
X929044Y-528000D01*
X929044Y-528000D02*
X948092Y-518476D01*
X1100473Y-718476D02*
X1100473Y-585143D01*
X1100473Y-604190D02*
X1109997Y-594667D01*
X1109997Y-594667D02*
X1129045Y-585143D01*
X1129045Y-585143D02*
X1157616Y-585143D01*
X1157616Y-585143D02*
X1176664Y-594667D01*
X1176664Y-594667D02*
X1186187Y-613714D01*
X1186187Y-613714D02*
X1186187Y-718476D01*
X1186187Y-613714D02*
X1195711Y-594667D01*
X1195711Y-594667D02*
X1214759Y-585143D01*
X1214759Y-585143D02*
X1243330Y-585143D01*
X1243330Y-585143D02*
X1262378Y-594667D01*
X1262378Y-594667D02*
X1271902Y-613714D01*
X1271902Y-613714D02*
X1271902Y-718476D01*
X1367140Y-718476D02*
X1367140Y-585143D01*
X1367140Y-604190D02*
X1376664Y-594667D01*
X1376664Y-594667D02*
X1395711Y-585143D01*
X1395711Y-585143D02*
X1424283Y-585143D01*
X1424283Y-585143D02*
X1443330Y-594667D01*
X1443330Y-594667D02*
X1452854Y-613714D01*
X1452854Y-613714D02*
X1452854Y-718476D01*
X1452854Y-613714D02*
X1462378Y-594667D01*
X1462378Y-594667D02*
X1481425Y-585143D01*
X1481425Y-585143D02*
X1509997Y-585143D01*
X1509997Y-585143D02*
X1529045Y-594667D01*
X1529045Y-594667D02*
X1538568Y-613714D01*
X1538568Y-613714D02*
X1538568Y-718476D01*
X1896664Y-508952D02*
X1725235Y-766095D01*
X2121426Y-518476D02*
X2140473Y-518476D01*
X2140473Y-518476D02*
X2159521Y-528000D01*
X2159521Y-528000D02*
X2169045Y-537524D01*
X2169045Y-537524D02*
X2178568Y-556571D01*
X2178568Y-556571D02*
X2188092Y-594667D01*
X2188092Y-594667D02*
X2188092Y-642286D01*
X2188092Y-642286D02*
X2178568Y-680381D01*
X2178568Y-680381D02*
X2169045Y-699428D01*
X2169045Y-699428D02*
X2159521Y-708952D01*
X2159521Y-708952D02*
X2140473Y-718476D01*
X2140473Y-718476D02*
X2121426Y-718476D01*
X2121426Y-718476D02*
X2102378Y-708952D01*
X2102378Y-708952D02*
X2092854Y-699428D01*
X2092854Y-699428D02*
X2083330Y-680381D01*
X2083330Y-680381D02*
X2073806Y-642286D01*
X2073806Y-642286D02*
X2073806Y-594667D01*
X2073806Y-594667D02*
X2083330Y-556571D01*
X2083330Y-556571D02*
X2092854Y-537524D01*
X2092854Y-537524D02*
X2102378Y-528000D01*
X2102378Y-528000D02*
X2121426Y-518476D01*
X2273807Y-699428D02*
X2283330Y-708952D01*
X2283330Y-708952D02*
X2273807Y-718476D01*
X2273807Y-718476D02*
X2264283Y-708952D01*
X2264283Y-708952D02*
X2273807Y-699428D01*
X2273807Y-699428D02*
X2273807Y-718476D01*
X2407140Y-518476D02*
X2426188Y-518476D01*
X2426188Y-518476D02*
X2445235Y-528000D01*
X2445235Y-528000D02*
X2454759Y-537524D01*
X2454759Y-537524D02*
X2464283Y-556571D01*
X2464283Y-556571D02*
X2473807Y-594667D01*
X2473807Y-594667D02*
X2473807Y-642286D01*
X2473807Y-642286D02*
X2464283Y-680381D01*
X2464283Y-680381D02*
X2454759Y-699428D01*
X2454759Y-699428D02*
X2445235Y-708952D01*
X2445235Y-708952D02*
X2426188Y-718476D01*
X2426188Y-718476D02*
X2407140Y-718476D01*
X2407140Y-718476D02*
X2388092Y-708952D01*
X2388092Y-708952D02*
X2378568Y-699428D01*
X2378568Y-699428D02*
X2369045Y-680381D01*
X2369045Y-680381D02*
X2359521Y-642286D01*
X2359521Y-642286D02*
X2359521Y-594667D01*
X2359521Y-594667D02*
X2369045Y-556571D01*
X2369045Y-556571D02*
X2378568Y-537524D01*
X2378568Y-537524D02*
X2388092Y-528000D01*
X2388092Y-528000D02*
X2407140Y-518476D01*
X2664283Y-718476D02*
X2549997Y-718476D01*
X2607140Y-718476D02*
X2607140Y-518476D01*
X2607140Y-518476D02*
X2588092Y-547048D01*
X2588092Y-547048D02*
X2569045Y-566095D01*
X2569045Y-566095D02*
X2549997Y-575619D01*
X2845235Y-518476D02*
X2749997Y-518476D01*
X2749997Y-518476D02*
X2740473Y-613714D01*
X2740473Y-613714D02*
X2749997Y-604190D01*
X2749997Y-604190D02*
X2769045Y-594667D01*
X2769045Y-594667D02*
X2816664Y-594667D01*
X2816664Y-594667D02*
X2835711Y-604190D01*
X2835711Y-604190D02*
X2845235Y-613714D01*
X2845235Y-613714D02*
X2854759Y-632762D01*
X2854759Y-632762D02*
X2854759Y-680381D01*
X2854759Y-680381D02*
X2845235Y-699428D01*
X2845235Y-699428D02*
X2835711Y-708952D01*
X2835711Y-708952D02*
X2816664Y-718476D01*
X2816664Y-718476D02*
X2769045Y-718476D01*
X2769045Y-718476D02*
X2749997Y-708952D01*
X2749997Y-708952D02*
X2740473Y-699428D01*
X2921426Y-518476D02*
X3054759Y-518476D01*
X3054759Y-518476D02*
X2969045Y-718476D01*
X3121426Y-518476D02*
X3121426Y-556571D01*
X3197616Y-518476D02*
X3197616Y-556571D01*
X3460473Y-794667D02*
X3450949Y-785143D01*
X3450949Y-785143D02*
X3431902Y-756571D01*
X3431902Y-756571D02*
X3422378Y-737524D01*
X3422378Y-737524D02*
X3412854Y-708952D01*
X3412854Y-708952D02*
X3403330Y-661333D01*
X3403330Y-661333D02*
X3403330Y-623238D01*
X3403330Y-623238D02*
X3412854Y-575619D01*
X3412854Y-575619D02*
X3422378Y-547048D01*
X3422378Y-547048D02*
X3431902Y-528000D01*
X3431902Y-528000D02*
X3450949Y-499428D01*
X3450949Y-499428D02*
X3460473Y-489905D01*
X3622378Y-585143D02*
X3622378Y-718476D01*
X3574759Y-508952D02*
X3527140Y-651810D01*
X3527140Y-651810D02*
X3650949Y-651810D01*
X3847140Y-718476D02*
X3847140Y-518476D01*
X3932854Y-718476D02*
X3932854Y-613714D01*
X3932854Y-613714D02*
X3923330Y-594667D01*
X3923330Y-594667D02*
X3904283Y-585143D01*
X3904283Y-585143D02*
X3875711Y-585143D01*
X3875711Y-585143D02*
X3856664Y-594667D01*
X3856664Y-594667D02*
X3847140Y-604190D01*
X4056664Y-718476D02*
X4037616Y-708952D01*
X4037616Y-708952D02*
X4028092Y-699428D01*
X4028092Y-699428D02*
X4018568Y-680381D01*
X4018568Y-680381D02*
X4018568Y-623238D01*
X4018568Y-623238D02*
X4028092Y-604190D01*
X4028092Y-604190D02*
X4037616Y-594667D01*
X4037616Y-594667D02*
X4056664Y-585143D01*
X4056664Y-585143D02*
X4085235Y-585143D01*
X4085235Y-585143D02*
X4104283Y-594667D01*
X4104283Y-594667D02*
X4113807Y-604190D01*
X4113807Y-604190D02*
X4123330Y-623238D01*
X4123330Y-623238D02*
X4123330Y-680381D01*
X4123330Y-680381D02*
X4113807Y-699428D01*
X4113807Y-699428D02*
X4104283Y-708952D01*
X4104283Y-708952D02*
X4085235Y-718476D01*
X4085235Y-718476D02*
X4056664Y-718476D01*
X4237616Y-718476D02*
X4218569Y-708952D01*
X4218569Y-708952D02*
X4209045Y-689905D01*
X4209045Y-689905D02*
X4209045Y-518476D01*
X4389997Y-708952D02*
X4370950Y-718476D01*
X4370950Y-718476D02*
X4332854Y-718476D01*
X4332854Y-718476D02*
X4313807Y-708952D01*
X4313807Y-708952D02*
X4304283Y-689905D01*
X4304283Y-689905D02*
X4304283Y-613714D01*
X4304283Y-613714D02*
X4313807Y-594667D01*
X4313807Y-594667D02*
X4332854Y-585143D01*
X4332854Y-585143D02*
X4370950Y-585143D01*
X4370950Y-585143D02*
X4389997Y-594667D01*
X4389997Y-594667D02*
X4399521Y-613714D01*
X4399521Y-613714D02*
X4399521Y-632762D01*
X4399521Y-632762D02*
X4304283Y-651810D01*
X4475711Y-708952D02*
X4494759Y-718476D01*
X4494759Y-718476D02*
X4532854Y-718476D01*
X4532854Y-718476D02*
X4551902Y-708952D01*
X4551902Y-708952D02*
X4561426Y-689905D01*
X4561426Y-689905D02*
X4561426Y-680381D01*
X4561426Y-680381D02*
X4551902Y-661333D01*
X4551902Y-661333D02*
X4532854Y-651810D01*
X4532854Y-651810D02*
X4504283Y-651810D01*
X4504283Y-651810D02*
X4485235Y-642286D01*
X4485235Y-642286D02*
X4475711Y-623238D01*
X4475711Y-623238D02*
X4475711Y-613714D01*
X4475711Y-613714D02*
X4485235Y-594667D01*
X4485235Y-594667D02*
X4504283Y-585143D01*
X4504283Y-585143D02*
X4532854Y-585143D01*
X4532854Y-585143D02*
X4551902Y-594667D01*
X4628092Y-794667D02*
X4637616Y-785143D01*
X4637616Y-785143D02*
X4656664Y-756571D01*
X4656664Y-756571D02*
X4666188Y-737524D01*
X4666188Y-737524D02*
X4675711Y-708952D01*
X4675711Y-708952D02*
X4685235Y-661333D01*
X4685235Y-661333D02*
X4685235Y-623238D01*
X4685235Y-623238D02*
X4675711Y-575619D01*
X4675711Y-575619D02*
X4666188Y-547048D01*
X4666188Y-547048D02*
X4656664Y-528000D01*
X4656664Y-528000D02*
X4637616Y-499428D01*
X4637616Y-499428D02*
X4628092Y-489905D01*
D13*
X-4289Y-909000D02*
G75*
G03*
X-4289Y-909000I-25000J0D01*
G01*
D11*
X281425Y-782476D02*
X300473Y-782476D01*
X300473Y-782476D02*
X319521Y-792000D01*
X319521Y-792000D02*
X329045Y-801524D01*
X329045Y-801524D02*
X338568Y-820571D01*
X338568Y-820571D02*
X348092Y-858667D01*
X348092Y-858667D02*
X348092Y-906286D01*
X348092Y-906286D02*
X338568Y-944381D01*
X338568Y-944381D02*
X329045Y-963428D01*
X329045Y-963428D02*
X319521Y-972952D01*
X319521Y-972952D02*
X300473Y-982476D01*
X300473Y-982476D02*
X281425Y-982476D01*
X281425Y-982476D02*
X262378Y-972952D01*
X262378Y-972952D02*
X252854Y-963428D01*
X252854Y-963428D02*
X243330Y-944381D01*
X243330Y-944381D02*
X233806Y-906286D01*
X233806Y-906286D02*
X233806Y-858667D01*
X233806Y-858667D02*
X243330Y-820571D01*
X243330Y-820571D02*
X252854Y-801524D01*
X252854Y-801524D02*
X262378Y-792000D01*
X262378Y-792000D02*
X281425Y-782476D01*
X433806Y-963428D02*
X443330Y-972952D01*
X443330Y-972952D02*
X433806Y-982476D01*
X433806Y-982476D02*
X424283Y-972952D01*
X424283Y-972952D02*
X433806Y-963428D01*
X433806Y-963428D02*
X433806Y-982476D01*
X624283Y-782476D02*
X529045Y-782476D01*
X529045Y-782476D02*
X519521Y-877714D01*
X519521Y-877714D02*
X529045Y-868190D01*
X529045Y-868190D02*
X548092Y-858667D01*
X548092Y-858667D02*
X595711Y-858667D01*
X595711Y-858667D02*
X614759Y-868190D01*
X614759Y-868190D02*
X624283Y-877714D01*
X624283Y-877714D02*
X633806Y-896762D01*
X633806Y-896762D02*
X633806Y-944381D01*
X633806Y-944381D02*
X624283Y-963428D01*
X624283Y-963428D02*
X614759Y-972952D01*
X614759Y-972952D02*
X595711Y-982476D01*
X595711Y-982476D02*
X548092Y-982476D01*
X548092Y-982476D02*
X529045Y-972952D01*
X529045Y-972952D02*
X519521Y-963428D01*
X757616Y-782476D02*
X776664Y-782476D01*
X776664Y-782476D02*
X795711Y-792000D01*
X795711Y-792000D02*
X805235Y-801524D01*
X805235Y-801524D02*
X814759Y-820571D01*
X814759Y-820571D02*
X824283Y-858667D01*
X824283Y-858667D02*
X824283Y-906286D01*
X824283Y-906286D02*
X814759Y-944381D01*
X814759Y-944381D02*
X805235Y-963428D01*
X805235Y-963428D02*
X795711Y-972952D01*
X795711Y-972952D02*
X776664Y-982476D01*
X776664Y-982476D02*
X757616Y-982476D01*
X757616Y-982476D02*
X738568Y-972952D01*
X738568Y-972952D02*
X729044Y-963428D01*
X729044Y-963428D02*
X719521Y-944381D01*
X719521Y-944381D02*
X709997Y-906286D01*
X709997Y-906286D02*
X709997Y-858667D01*
X709997Y-858667D02*
X719521Y-820571D01*
X719521Y-820571D02*
X729044Y-801524D01*
X729044Y-801524D02*
X738568Y-792000D01*
X738568Y-792000D02*
X757616Y-782476D01*
X948092Y-782476D02*
X967140Y-782476D01*
X967140Y-782476D02*
X986187Y-792000D01*
X986187Y-792000D02*
X995711Y-801524D01*
X995711Y-801524D02*
X1005235Y-820571D01*
X1005235Y-820571D02*
X1014759Y-858667D01*
X1014759Y-858667D02*
X1014759Y-906286D01*
X1014759Y-906286D02*
X1005235Y-944381D01*
X1005235Y-944381D02*
X995711Y-963428D01*
X995711Y-963428D02*
X986187Y-972952D01*
X986187Y-972952D02*
X967140Y-982476D01*
X967140Y-982476D02*
X948092Y-982476D01*
X948092Y-982476D02*
X929044Y-972952D01*
X929044Y-972952D02*
X919521Y-963428D01*
X919521Y-963428D02*
X909997Y-944381D01*
X909997Y-944381D02*
X900473Y-906286D01*
X900473Y-906286D02*
X900473Y-858667D01*
X900473Y-858667D02*
X909997Y-820571D01*
X909997Y-820571D02*
X919521Y-801524D01*
X919521Y-801524D02*
X929044Y-792000D01*
X929044Y-792000D02*
X948092Y-782476D01*
X1100473Y-982476D02*
X1100473Y-849143D01*
X1100473Y-868190D02*
X1109997Y-858667D01*
X1109997Y-858667D02*
X1129045Y-849143D01*
X1129045Y-849143D02*
X1157616Y-849143D01*
X1157616Y-849143D02*
X1176664Y-858667D01*
X1176664Y-858667D02*
X1186187Y-877714D01*
X1186187Y-877714D02*
X1186187Y-982476D01*
X1186187Y-877714D02*
X1195711Y-858667D01*
X1195711Y-858667D02*
X1214759Y-849143D01*
X1214759Y-849143D02*
X1243330Y-849143D01*
X1243330Y-849143D02*
X1262378Y-858667D01*
X1262378Y-858667D02*
X1271902Y-877714D01*
X1271902Y-877714D02*
X1271902Y-982476D01*
X1367140Y-982476D02*
X1367140Y-849143D01*
X1367140Y-868190D02*
X1376664Y-858667D01*
X1376664Y-858667D02*
X1395711Y-849143D01*
X1395711Y-849143D02*
X1424283Y-849143D01*
X1424283Y-849143D02*
X1443330Y-858667D01*
X1443330Y-858667D02*
X1452854Y-877714D01*
X1452854Y-877714D02*
X1452854Y-982476D01*
X1452854Y-877714D02*
X1462378Y-858667D01*
X1462378Y-858667D02*
X1481425Y-849143D01*
X1481425Y-849143D02*
X1509997Y-849143D01*
X1509997Y-849143D02*
X1529045Y-858667D01*
X1529045Y-858667D02*
X1538568Y-877714D01*
X1538568Y-877714D02*
X1538568Y-982476D01*
X1896664Y-772952D02*
X1725235Y-1030095D01*
X2121426Y-782476D02*
X2140473Y-782476D01*
X2140473Y-782476D02*
X2159521Y-792000D01*
X2159521Y-792000D02*
X2169045Y-801524D01*
X2169045Y-801524D02*
X2178568Y-820571D01*
X2178568Y-820571D02*
X2188092Y-858667D01*
X2188092Y-858667D02*
X2188092Y-906286D01*
X2188092Y-906286D02*
X2178568Y-944381D01*
X2178568Y-944381D02*
X2169045Y-963428D01*
X2169045Y-963428D02*
X2159521Y-972952D01*
X2159521Y-972952D02*
X2140473Y-982476D01*
X2140473Y-982476D02*
X2121426Y-982476D01*
X2121426Y-982476D02*
X2102378Y-972952D01*
X2102378Y-972952D02*
X2092854Y-963428D01*
X2092854Y-963428D02*
X2083330Y-944381D01*
X2083330Y-944381D02*
X2073806Y-906286D01*
X2073806Y-906286D02*
X2073806Y-858667D01*
X2073806Y-858667D02*
X2083330Y-820571D01*
X2083330Y-820571D02*
X2092854Y-801524D01*
X2092854Y-801524D02*
X2102378Y-792000D01*
X2102378Y-792000D02*
X2121426Y-782476D01*
X2273807Y-963428D02*
X2283330Y-972952D01*
X2283330Y-972952D02*
X2273807Y-982476D01*
X2273807Y-982476D02*
X2264283Y-972952D01*
X2264283Y-972952D02*
X2273807Y-963428D01*
X2273807Y-963428D02*
X2273807Y-982476D01*
X2407140Y-782476D02*
X2426188Y-782476D01*
X2426188Y-782476D02*
X2445235Y-792000D01*
X2445235Y-792000D02*
X2454759Y-801524D01*
X2454759Y-801524D02*
X2464283Y-820571D01*
X2464283Y-820571D02*
X2473807Y-858667D01*
X2473807Y-858667D02*
X2473807Y-906286D01*
X2473807Y-906286D02*
X2464283Y-944381D01*
X2464283Y-944381D02*
X2454759Y-963428D01*
X2454759Y-963428D02*
X2445235Y-972952D01*
X2445235Y-972952D02*
X2426188Y-982476D01*
X2426188Y-982476D02*
X2407140Y-982476D01*
X2407140Y-982476D02*
X2388092Y-972952D01*
X2388092Y-972952D02*
X2378568Y-963428D01*
X2378568Y-963428D02*
X2369045Y-944381D01*
X2369045Y-944381D02*
X2359521Y-906286D01*
X2359521Y-906286D02*
X2359521Y-858667D01*
X2359521Y-858667D02*
X2369045Y-820571D01*
X2369045Y-820571D02*
X2378568Y-801524D01*
X2378568Y-801524D02*
X2388092Y-792000D01*
X2388092Y-792000D02*
X2407140Y-782476D01*
X2664283Y-982476D02*
X2549997Y-982476D01*
X2607140Y-982476D02*
X2607140Y-782476D01*
X2607140Y-782476D02*
X2588092Y-811048D01*
X2588092Y-811048D02*
X2569045Y-830095D01*
X2569045Y-830095D02*
X2549997Y-839619D01*
X2759521Y-982476D02*
X2797616Y-982476D01*
X2797616Y-982476D02*
X2816664Y-972952D01*
X2816664Y-972952D02*
X2826187Y-963428D01*
X2826187Y-963428D02*
X2845235Y-934857D01*
X2845235Y-934857D02*
X2854759Y-896762D01*
X2854759Y-896762D02*
X2854759Y-820571D01*
X2854759Y-820571D02*
X2845235Y-801524D01*
X2845235Y-801524D02*
X2835711Y-792000D01*
X2835711Y-792000D02*
X2816664Y-782476D01*
X2816664Y-782476D02*
X2778568Y-782476D01*
X2778568Y-782476D02*
X2759521Y-792000D01*
X2759521Y-792000D02*
X2749997Y-801524D01*
X2749997Y-801524D02*
X2740473Y-820571D01*
X2740473Y-820571D02*
X2740473Y-868190D01*
X2740473Y-868190D02*
X2749997Y-887238D01*
X2749997Y-887238D02*
X2759521Y-896762D01*
X2759521Y-896762D02*
X2778568Y-906286D01*
X2778568Y-906286D02*
X2816664Y-906286D01*
X2816664Y-906286D02*
X2835711Y-896762D01*
X2835711Y-896762D02*
X2845235Y-887238D01*
X2845235Y-887238D02*
X2854759Y-868190D01*
X2921426Y-782476D02*
X3054759Y-782476D01*
X3054759Y-782476D02*
X2969045Y-982476D01*
X3121426Y-782476D02*
X3121426Y-820571D01*
X3197616Y-782476D02*
X3197616Y-820571D01*
X3460473Y-1058667D02*
X3450949Y-1049143D01*
X3450949Y-1049143D02*
X3431902Y-1020571D01*
X3431902Y-1020571D02*
X3422378Y-1001524D01*
X3422378Y-1001524D02*
X3412854Y-972952D01*
X3412854Y-972952D02*
X3403330Y-925333D01*
X3403330Y-925333D02*
X3403330Y-887238D01*
X3403330Y-887238D02*
X3412854Y-839619D01*
X3412854Y-839619D02*
X3422378Y-811048D01*
X3422378Y-811048D02*
X3431902Y-792000D01*
X3431902Y-792000D02*
X3450949Y-763428D01*
X3450949Y-763428D02*
X3460473Y-753905D01*
X3517616Y-782476D02*
X3641426Y-782476D01*
X3641426Y-782476D02*
X3574759Y-858667D01*
X3574759Y-858667D02*
X3603330Y-858667D01*
X3603330Y-858667D02*
X3622378Y-868190D01*
X3622378Y-868190D02*
X3631902Y-877714D01*
X3631902Y-877714D02*
X3641426Y-896762D01*
X3641426Y-896762D02*
X3641426Y-944381D01*
X3641426Y-944381D02*
X3631902Y-963428D01*
X3631902Y-963428D02*
X3622378Y-972952D01*
X3622378Y-972952D02*
X3603330Y-982476D01*
X3603330Y-982476D02*
X3546187Y-982476D01*
X3546187Y-982476D02*
X3527140Y-972952D01*
X3527140Y-972952D02*
X3517616Y-963428D01*
X3717616Y-801524D02*
X3727140Y-792000D01*
X3727140Y-792000D02*
X3746187Y-782476D01*
X3746187Y-782476D02*
X3793807Y-782476D01*
X3793807Y-782476D02*
X3812854Y-792000D01*
X3812854Y-792000D02*
X3822378Y-801524D01*
X3822378Y-801524D02*
X3831902Y-820571D01*
X3831902Y-820571D02*
X3831902Y-839619D01*
X3831902Y-839619D02*
X3822378Y-868190D01*
X3822378Y-868190D02*
X3708092Y-982476D01*
X3708092Y-982476D02*
X3831902Y-982476D01*
X4037616Y-982476D02*
X4037616Y-782476D01*
X4123330Y-982476D02*
X4123330Y-877714D01*
X4123330Y-877714D02*
X4113807Y-858667D01*
X4113807Y-858667D02*
X4094759Y-849143D01*
X4094759Y-849143D02*
X4066187Y-849143D01*
X4066187Y-849143D02*
X4047140Y-858667D01*
X4047140Y-858667D02*
X4037616Y-868190D01*
X4247140Y-982476D02*
X4228092Y-972952D01*
X4228092Y-972952D02*
X4218569Y-963428D01*
X4218569Y-963428D02*
X4209045Y-944381D01*
X4209045Y-944381D02*
X4209045Y-887238D01*
X4209045Y-887238D02*
X4218569Y-868190D01*
X4218569Y-868190D02*
X4228092Y-858667D01*
X4228092Y-858667D02*
X4247140Y-849143D01*
X4247140Y-849143D02*
X4275711Y-849143D01*
X4275711Y-849143D02*
X4294759Y-858667D01*
X4294759Y-858667D02*
X4304283Y-868190D01*
X4304283Y-868190D02*
X4313807Y-887238D01*
X4313807Y-887238D02*
X4313807Y-944381D01*
X4313807Y-944381D02*
X4304283Y-963428D01*
X4304283Y-963428D02*
X4294759Y-972952D01*
X4294759Y-972952D02*
X4275711Y-982476D01*
X4275711Y-982476D02*
X4247140Y-982476D01*
X4428092Y-982476D02*
X4409045Y-972952D01*
X4409045Y-972952D02*
X4399521Y-953905D01*
X4399521Y-953905D02*
X4399521Y-782476D01*
X4580473Y-972952D02*
X4561426Y-982476D01*
X4561426Y-982476D02*
X4523330Y-982476D01*
X4523330Y-982476D02*
X4504283Y-972952D01*
X4504283Y-972952D02*
X4494759Y-953905D01*
X4494759Y-953905D02*
X4494759Y-877714D01*
X4494759Y-877714D02*
X4504283Y-858667D01*
X4504283Y-858667D02*
X4523330Y-849143D01*
X4523330Y-849143D02*
X4561426Y-849143D01*
X4561426Y-849143D02*
X4580473Y-858667D01*
X4580473Y-858667D02*
X4589997Y-877714D01*
X4589997Y-877714D02*
X4589997Y-896762D01*
X4589997Y-896762D02*
X4494759Y-915809D01*
X4666188Y-972952D02*
X4685235Y-982476D01*
X4685235Y-982476D02*
X4723330Y-982476D01*
X4723330Y-982476D02*
X4742378Y-972952D01*
X4742378Y-972952D02*
X4751902Y-953905D01*
X4751902Y-953905D02*
X4751902Y-944381D01*
X4751902Y-944381D02*
X4742378Y-925333D01*
X4742378Y-925333D02*
X4723330Y-915809D01*
X4723330Y-915809D02*
X4694759Y-915809D01*
X4694759Y-915809D02*
X4675711Y-906286D01*
X4675711Y-906286D02*
X4666188Y-887238D01*
X4666188Y-887238D02*
X4666188Y-877714D01*
X4666188Y-877714D02*
X4675711Y-858667D01*
X4675711Y-858667D02*
X4694759Y-849143D01*
X4694759Y-849143D02*
X4723330Y-849143D01*
X4723330Y-849143D02*
X4742378Y-858667D01*
X4818569Y-1058667D02*
X4828092Y-1049143D01*
X4828092Y-1049143D02*
X4847140Y-1020571D01*
X4847140Y-1020571D02*
X4856664Y-1001524D01*
X4856664Y-1001524D02*
X4866188Y-972952D01*
X4866188Y-972952D02*
X4875711Y-925333D01*
X4875711Y-925333D02*
X4875711Y-887238D01*
X4875711Y-887238D02*
X4866188Y-839619D01*
X4866188Y-839619D02*
X4856664Y-811048D01*
X4856664Y-811048D02*
X4847140Y-792000D01*
X4847140Y-792000D02*
X4828092Y-763428D01*
X4828092Y-763428D02*
X4818569Y-753905D01*
D14*
X-59289Y-1118000D02*
X-59289Y-1228000D01*
X-114289Y-1173000D02*
X-4289Y-1173000D01*
D11*
X348092Y-1246476D02*
X233806Y-1246476D01*
X290949Y-1246476D02*
X290949Y-1046476D01*
X290949Y-1046476D02*
X271902Y-1075048D01*
X271902Y-1075048D02*
X252854Y-1094095D01*
X252854Y-1094095D02*
X233806Y-1103619D01*
X433806Y-1227429D02*
X443330Y-1236952D01*
X443330Y-1236952D02*
X433806Y-1246476D01*
X433806Y-1246476D02*
X424283Y-1236952D01*
X424283Y-1236952D02*
X433806Y-1227429D01*
X433806Y-1227429D02*
X433806Y-1246476D01*
X633806Y-1246476D02*
X519521Y-1246476D01*
X576664Y-1246476D02*
X576664Y-1046476D01*
X576664Y-1046476D02*
X557616Y-1075048D01*
X557616Y-1075048D02*
X538568Y-1094095D01*
X538568Y-1094095D02*
X519521Y-1103619D01*
X757616Y-1046476D02*
X776664Y-1046476D01*
X776664Y-1046476D02*
X795711Y-1056000D01*
X795711Y-1056000D02*
X805235Y-1065524D01*
X805235Y-1065524D02*
X814759Y-1084571D01*
X814759Y-1084571D02*
X824283Y-1122667D01*
X824283Y-1122667D02*
X824283Y-1170286D01*
X824283Y-1170286D02*
X814759Y-1208381D01*
X814759Y-1208381D02*
X805235Y-1227429D01*
X805235Y-1227429D02*
X795711Y-1236952D01*
X795711Y-1236952D02*
X776664Y-1246476D01*
X776664Y-1246476D02*
X757616Y-1246476D01*
X757616Y-1246476D02*
X738568Y-1236952D01*
X738568Y-1236952D02*
X729044Y-1227429D01*
X729044Y-1227429D02*
X719521Y-1208381D01*
X719521Y-1208381D02*
X709997Y-1170286D01*
X709997Y-1170286D02*
X709997Y-1122667D01*
X709997Y-1122667D02*
X719521Y-1084571D01*
X719521Y-1084571D02*
X729044Y-1065524D01*
X729044Y-1065524D02*
X738568Y-1056000D01*
X738568Y-1056000D02*
X757616Y-1046476D01*
X948092Y-1046476D02*
X967140Y-1046476D01*
X967140Y-1046476D02*
X986187Y-1056000D01*
X986187Y-1056000D02*
X995711Y-1065524D01*
X995711Y-1065524D02*
X1005235Y-1084571D01*
X1005235Y-1084571D02*
X1014759Y-1122667D01*
X1014759Y-1122667D02*
X1014759Y-1170286D01*
X1014759Y-1170286D02*
X1005235Y-1208381D01*
X1005235Y-1208381D02*
X995711Y-1227429D01*
X995711Y-1227429D02*
X986187Y-1236952D01*
X986187Y-1236952D02*
X967140Y-1246476D01*
X967140Y-1246476D02*
X948092Y-1246476D01*
X948092Y-1246476D02*
X929044Y-1236952D01*
X929044Y-1236952D02*
X919521Y-1227429D01*
X919521Y-1227429D02*
X909997Y-1208381D01*
X909997Y-1208381D02*
X900473Y-1170286D01*
X900473Y-1170286D02*
X900473Y-1122667D01*
X900473Y-1122667D02*
X909997Y-1084571D01*
X909997Y-1084571D02*
X919521Y-1065524D01*
X919521Y-1065524D02*
X929044Y-1056000D01*
X929044Y-1056000D02*
X948092Y-1046476D01*
X1100473Y-1246476D02*
X1100473Y-1113143D01*
X1100473Y-1132190D02*
X1109997Y-1122667D01*
X1109997Y-1122667D02*
X1129045Y-1113143D01*
X1129045Y-1113143D02*
X1157616Y-1113143D01*
X1157616Y-1113143D02*
X1176664Y-1122667D01*
X1176664Y-1122667D02*
X1186187Y-1141714D01*
X1186187Y-1141714D02*
X1186187Y-1246476D01*
X1186187Y-1141714D02*
X1195711Y-1122667D01*
X1195711Y-1122667D02*
X1214759Y-1113143D01*
X1214759Y-1113143D02*
X1243330Y-1113143D01*
X1243330Y-1113143D02*
X1262378Y-1122667D01*
X1262378Y-1122667D02*
X1271902Y-1141714D01*
X1271902Y-1141714D02*
X1271902Y-1246476D01*
X1367140Y-1246476D02*
X1367140Y-1113143D01*
X1367140Y-1132190D02*
X1376664Y-1122667D01*
X1376664Y-1122667D02*
X1395711Y-1113143D01*
X1395711Y-1113143D02*
X1424283Y-1113143D01*
X1424283Y-1113143D02*
X1443330Y-1122667D01*
X1443330Y-1122667D02*
X1452854Y-1141714D01*
X1452854Y-1141714D02*
X1452854Y-1246476D01*
X1452854Y-1141714D02*
X1462378Y-1122667D01*
X1462378Y-1122667D02*
X1481425Y-1113143D01*
X1481425Y-1113143D02*
X1509997Y-1113143D01*
X1509997Y-1113143D02*
X1529045Y-1122667D01*
X1529045Y-1122667D02*
X1538568Y-1141714D01*
X1538568Y-1141714D02*
X1538568Y-1246476D01*
X1896664Y-1036952D02*
X1725235Y-1294095D01*
X2121426Y-1046476D02*
X2140473Y-1046476D01*
X2140473Y-1046476D02*
X2159521Y-1056000D01*
X2159521Y-1056000D02*
X2169045Y-1065524D01*
X2169045Y-1065524D02*
X2178568Y-1084571D01*
X2178568Y-1084571D02*
X2188092Y-1122667D01*
X2188092Y-1122667D02*
X2188092Y-1170286D01*
X2188092Y-1170286D02*
X2178568Y-1208381D01*
X2178568Y-1208381D02*
X2169045Y-1227429D01*
X2169045Y-1227429D02*
X2159521Y-1236952D01*
X2159521Y-1236952D02*
X2140473Y-1246476D01*
X2140473Y-1246476D02*
X2121426Y-1246476D01*
X2121426Y-1246476D02*
X2102378Y-1236952D01*
X2102378Y-1236952D02*
X2092854Y-1227429D01*
X2092854Y-1227429D02*
X2083330Y-1208381D01*
X2083330Y-1208381D02*
X2073806Y-1170286D01*
X2073806Y-1170286D02*
X2073806Y-1122667D01*
X2073806Y-1122667D02*
X2083330Y-1084571D01*
X2083330Y-1084571D02*
X2092854Y-1065524D01*
X2092854Y-1065524D02*
X2102378Y-1056000D01*
X2102378Y-1056000D02*
X2121426Y-1046476D01*
X2273807Y-1227429D02*
X2283330Y-1236952D01*
X2283330Y-1236952D02*
X2273807Y-1246476D01*
X2273807Y-1246476D02*
X2264283Y-1236952D01*
X2264283Y-1236952D02*
X2273807Y-1227429D01*
X2273807Y-1227429D02*
X2273807Y-1246476D01*
X2407140Y-1046476D02*
X2426188Y-1046476D01*
X2426188Y-1046476D02*
X2445235Y-1056000D01*
X2445235Y-1056000D02*
X2454759Y-1065524D01*
X2454759Y-1065524D02*
X2464283Y-1084571D01*
X2464283Y-1084571D02*
X2473807Y-1122667D01*
X2473807Y-1122667D02*
X2473807Y-1170286D01*
X2473807Y-1170286D02*
X2464283Y-1208381D01*
X2464283Y-1208381D02*
X2454759Y-1227429D01*
X2454759Y-1227429D02*
X2445235Y-1236952D01*
X2445235Y-1236952D02*
X2426188Y-1246476D01*
X2426188Y-1246476D02*
X2407140Y-1246476D01*
X2407140Y-1246476D02*
X2388092Y-1236952D01*
X2388092Y-1236952D02*
X2378568Y-1227429D01*
X2378568Y-1227429D02*
X2369045Y-1208381D01*
X2369045Y-1208381D02*
X2359521Y-1170286D01*
X2359521Y-1170286D02*
X2359521Y-1122667D01*
X2359521Y-1122667D02*
X2369045Y-1084571D01*
X2369045Y-1084571D02*
X2378568Y-1065524D01*
X2378568Y-1065524D02*
X2388092Y-1056000D01*
X2388092Y-1056000D02*
X2407140Y-1046476D01*
X2645235Y-1113143D02*
X2645235Y-1246476D01*
X2597616Y-1036952D02*
X2549997Y-1179810D01*
X2549997Y-1179810D02*
X2673807Y-1179810D01*
X2730949Y-1046476D02*
X2854759Y-1046476D01*
X2854759Y-1046476D02*
X2788092Y-1122667D01*
X2788092Y-1122667D02*
X2816664Y-1122667D01*
X2816664Y-1122667D02*
X2835711Y-1132190D01*
X2835711Y-1132190D02*
X2845235Y-1141714D01*
X2845235Y-1141714D02*
X2854759Y-1160762D01*
X2854759Y-1160762D02*
X2854759Y-1208381D01*
X2854759Y-1208381D02*
X2845235Y-1227429D01*
X2845235Y-1227429D02*
X2835711Y-1236952D01*
X2835711Y-1236952D02*
X2816664Y-1246476D01*
X2816664Y-1246476D02*
X2759521Y-1246476D01*
X2759521Y-1246476D02*
X2740473Y-1236952D01*
X2740473Y-1236952D02*
X2730949Y-1227429D01*
X2921426Y-1046476D02*
X3045235Y-1046476D01*
X3045235Y-1046476D02*
X2978568Y-1122667D01*
X2978568Y-1122667D02*
X3007140Y-1122667D01*
X3007140Y-1122667D02*
X3026187Y-1132190D01*
X3026187Y-1132190D02*
X3035711Y-1141714D01*
X3035711Y-1141714D02*
X3045235Y-1160762D01*
X3045235Y-1160762D02*
X3045235Y-1208381D01*
X3045235Y-1208381D02*
X3035711Y-1227429D01*
X3035711Y-1227429D02*
X3026187Y-1236952D01*
X3026187Y-1236952D02*
X3007140Y-1246476D01*
X3007140Y-1246476D02*
X2949997Y-1246476D01*
X2949997Y-1246476D02*
X2930949Y-1236952D01*
X2930949Y-1236952D02*
X2921426Y-1227429D01*
X3121426Y-1046476D02*
X3121426Y-1084571D01*
X3197616Y-1046476D02*
X3197616Y-1084571D01*
X3460473Y-1322667D02*
X3450949Y-1313143D01*
X3450949Y-1313143D02*
X3431902Y-1284571D01*
X3431902Y-1284571D02*
X3422378Y-1265524D01*
X3422378Y-1265524D02*
X3412854Y-1236952D01*
X3412854Y-1236952D02*
X3403330Y-1189333D01*
X3403330Y-1189333D02*
X3403330Y-1151238D01*
X3403330Y-1151238D02*
X3412854Y-1103619D01*
X3412854Y-1103619D02*
X3422378Y-1075048D01*
X3422378Y-1075048D02*
X3431902Y-1056000D01*
X3431902Y-1056000D02*
X3450949Y-1027428D01*
X3450949Y-1027428D02*
X3460473Y-1017905D01*
X3527140Y-1065524D02*
X3536664Y-1056000D01*
X3536664Y-1056000D02*
X3555711Y-1046476D01*
X3555711Y-1046476D02*
X3603330Y-1046476D01*
X3603330Y-1046476D02*
X3622378Y-1056000D01*
X3622378Y-1056000D02*
X3631902Y-1065524D01*
X3631902Y-1065524D02*
X3641426Y-1084571D01*
X3641426Y-1084571D02*
X3641426Y-1103619D01*
X3641426Y-1103619D02*
X3631902Y-1132190D01*
X3631902Y-1132190D02*
X3517616Y-1246476D01*
X3517616Y-1246476D02*
X3641426Y-1246476D01*
X3812854Y-1113143D02*
X3812854Y-1246476D01*
X3765235Y-1036952D02*
X3717616Y-1179810D01*
X3717616Y-1179810D02*
X3841426Y-1179810D01*
X4037616Y-1246476D02*
X4037616Y-1046476D01*
X4123330Y-1246476D02*
X4123330Y-1141714D01*
X4123330Y-1141714D02*
X4113807Y-1122667D01*
X4113807Y-1122667D02*
X4094759Y-1113143D01*
X4094759Y-1113143D02*
X4066187Y-1113143D01*
X4066187Y-1113143D02*
X4047140Y-1122667D01*
X4047140Y-1122667D02*
X4037616Y-1132190D01*
X4247140Y-1246476D02*
X4228092Y-1236952D01*
X4228092Y-1236952D02*
X4218569Y-1227429D01*
X4218569Y-1227429D02*
X4209045Y-1208381D01*
X4209045Y-1208381D02*
X4209045Y-1151238D01*
X4209045Y-1151238D02*
X4218569Y-1132190D01*
X4218569Y-1132190D02*
X4228092Y-1122667D01*
X4228092Y-1122667D02*
X4247140Y-1113143D01*
X4247140Y-1113143D02*
X4275711Y-1113143D01*
X4275711Y-1113143D02*
X4294759Y-1122667D01*
X4294759Y-1122667D02*
X4304283Y-1132190D01*
X4304283Y-1132190D02*
X4313807Y-1151238D01*
X4313807Y-1151238D02*
X4313807Y-1208381D01*
X4313807Y-1208381D02*
X4304283Y-1227429D01*
X4304283Y-1227429D02*
X4294759Y-1236952D01*
X4294759Y-1236952D02*
X4275711Y-1246476D01*
X4275711Y-1246476D02*
X4247140Y-1246476D01*
X4428092Y-1246476D02*
X4409045Y-1236952D01*
X4409045Y-1236952D02*
X4399521Y-1217905D01*
X4399521Y-1217905D02*
X4399521Y-1046476D01*
X4580473Y-1236952D02*
X4561426Y-1246476D01*
X4561426Y-1246476D02*
X4523330Y-1246476D01*
X4523330Y-1246476D02*
X4504283Y-1236952D01*
X4504283Y-1236952D02*
X4494759Y-1217905D01*
X4494759Y-1217905D02*
X4494759Y-1141714D01*
X4494759Y-1141714D02*
X4504283Y-1122667D01*
X4504283Y-1122667D02*
X4523330Y-1113143D01*
X4523330Y-1113143D02*
X4561426Y-1113143D01*
X4561426Y-1113143D02*
X4580473Y-1122667D01*
X4580473Y-1122667D02*
X4589997Y-1141714D01*
X4589997Y-1141714D02*
X4589997Y-1160762D01*
X4589997Y-1160762D02*
X4494759Y-1179810D01*
X4666188Y-1236952D02*
X4685235Y-1246476D01*
X4685235Y-1246476D02*
X4723330Y-1246476D01*
X4723330Y-1246476D02*
X4742378Y-1236952D01*
X4742378Y-1236952D02*
X4751902Y-1217905D01*
X4751902Y-1217905D02*
X4751902Y-1208381D01*
X4751902Y-1208381D02*
X4742378Y-1189333D01*
X4742378Y-1189333D02*
X4723330Y-1179810D01*
X4723330Y-1179810D02*
X4694759Y-1179810D01*
X4694759Y-1179810D02*
X4675711Y-1170286D01*
X4675711Y-1170286D02*
X4666188Y-1151238D01*
X4666188Y-1151238D02*
X4666188Y-1141714D01*
X4666188Y-1141714D02*
X4675711Y-1122667D01*
X4675711Y-1122667D02*
X4694759Y-1113143D01*
X4694759Y-1113143D02*
X4723330Y-1113143D01*
X4723330Y-1113143D02*
X4742378Y-1122667D01*
X4818569Y-1322667D02*
X4828092Y-1313143D01*
X4828092Y-1313143D02*
X4847140Y-1284571D01*
X4847140Y-1284571D02*
X4856664Y-1265524D01*
X4856664Y-1265524D02*
X4866188Y-1236952D01*
X4866188Y-1236952D02*
X4875711Y-1189333D01*
X4875711Y-1189333D02*
X4875711Y-1151238D01*
X4875711Y-1151238D02*
X4866188Y-1103619D01*
X4866188Y-1103619D02*
X4856664Y-1075048D01*
X4856664Y-1075048D02*
X4847140Y-1056000D01*
X4847140Y-1056000D02*
X4828092Y-1027428D01*
X4828092Y-1027428D02*
X4818569Y-1017905D01*
D15*
X-21862Y-1479427D02*
X-21862Y-1394573D01*
X-106716Y-1394573D01*
X-106716Y-1479427D01*
X-21862Y-1479427D01*
D11*
X348092Y-1510476D02*
X233806Y-1510476D01*
X290949Y-1510476D02*
X290949Y-1310476D01*
X290949Y-1310476D02*
X271902Y-1339048D01*
X271902Y-1339048D02*
X252854Y-1358095D01*
X252854Y-1358095D02*
X233806Y-1367619D01*
X433806Y-1491428D02*
X443330Y-1500952D01*
X443330Y-1500952D02*
X433806Y-1510476D01*
X433806Y-1510476D02*
X424283Y-1500952D01*
X424283Y-1500952D02*
X433806Y-1491428D01*
X433806Y-1491428D02*
X433806Y-1510476D01*
X519521Y-1329524D02*
X529045Y-1320000D01*
X529045Y-1320000D02*
X548092Y-1310476D01*
X548092Y-1310476D02*
X595711Y-1310476D01*
X595711Y-1310476D02*
X614759Y-1320000D01*
X614759Y-1320000D02*
X624283Y-1329524D01*
X624283Y-1329524D02*
X633806Y-1348571D01*
X633806Y-1348571D02*
X633806Y-1367619D01*
X633806Y-1367619D02*
X624283Y-1396190D01*
X624283Y-1396190D02*
X509997Y-1510476D01*
X509997Y-1510476D02*
X633806Y-1510476D01*
X757616Y-1310476D02*
X776664Y-1310476D01*
X776664Y-1310476D02*
X795711Y-1320000D01*
X795711Y-1320000D02*
X805235Y-1329524D01*
X805235Y-1329524D02*
X814759Y-1348571D01*
X814759Y-1348571D02*
X824283Y-1386667D01*
X824283Y-1386667D02*
X824283Y-1434286D01*
X824283Y-1434286D02*
X814759Y-1472381D01*
X814759Y-1472381D02*
X805235Y-1491428D01*
X805235Y-1491428D02*
X795711Y-1500952D01*
X795711Y-1500952D02*
X776664Y-1510476D01*
X776664Y-1510476D02*
X757616Y-1510476D01*
X757616Y-1510476D02*
X738568Y-1500952D01*
X738568Y-1500952D02*
X729044Y-1491428D01*
X729044Y-1491428D02*
X719521Y-1472381D01*
X719521Y-1472381D02*
X709997Y-1434286D01*
X709997Y-1434286D02*
X709997Y-1386667D01*
X709997Y-1386667D02*
X719521Y-1348571D01*
X719521Y-1348571D02*
X729044Y-1329524D01*
X729044Y-1329524D02*
X738568Y-1320000D01*
X738568Y-1320000D02*
X757616Y-1310476D01*
X948092Y-1310476D02*
X967140Y-1310476D01*
X967140Y-1310476D02*
X986187Y-1320000D01*
X986187Y-1320000D02*
X995711Y-1329524D01*
X995711Y-1329524D02*
X1005235Y-1348571D01*
X1005235Y-1348571D02*
X1014759Y-1386667D01*
X1014759Y-1386667D02*
X1014759Y-1434286D01*
X1014759Y-1434286D02*
X1005235Y-1472381D01*
X1005235Y-1472381D02*
X995711Y-1491428D01*
X995711Y-1491428D02*
X986187Y-1500952D01*
X986187Y-1500952D02*
X967140Y-1510476D01*
X967140Y-1510476D02*
X948092Y-1510476D01*
X948092Y-1510476D02*
X929044Y-1500952D01*
X929044Y-1500952D02*
X919521Y-1491428D01*
X919521Y-1491428D02*
X909997Y-1472381D01*
X909997Y-1472381D02*
X900473Y-1434286D01*
X900473Y-1434286D02*
X900473Y-1386667D01*
X900473Y-1386667D02*
X909997Y-1348571D01*
X909997Y-1348571D02*
X919521Y-1329524D01*
X919521Y-1329524D02*
X929044Y-1320000D01*
X929044Y-1320000D02*
X948092Y-1310476D01*
X1100473Y-1510476D02*
X1100473Y-1377143D01*
X1100473Y-1396190D02*
X1109997Y-1386667D01*
X1109997Y-1386667D02*
X1129045Y-1377143D01*
X1129045Y-1377143D02*
X1157616Y-1377143D01*
X1157616Y-1377143D02*
X1176664Y-1386667D01*
X1176664Y-1386667D02*
X1186187Y-1405714D01*
X1186187Y-1405714D02*
X1186187Y-1510476D01*
X1186187Y-1405714D02*
X1195711Y-1386667D01*
X1195711Y-1386667D02*
X1214759Y-1377143D01*
X1214759Y-1377143D02*
X1243330Y-1377143D01*
X1243330Y-1377143D02*
X1262378Y-1386667D01*
X1262378Y-1386667D02*
X1271902Y-1405714D01*
X1271902Y-1405714D02*
X1271902Y-1510476D01*
X1367140Y-1510476D02*
X1367140Y-1377143D01*
X1367140Y-1396190D02*
X1376664Y-1386667D01*
X1376664Y-1386667D02*
X1395711Y-1377143D01*
X1395711Y-1377143D02*
X1424283Y-1377143D01*
X1424283Y-1377143D02*
X1443330Y-1386667D01*
X1443330Y-1386667D02*
X1452854Y-1405714D01*
X1452854Y-1405714D02*
X1452854Y-1510476D01*
X1452854Y-1405714D02*
X1462378Y-1386667D01*
X1462378Y-1386667D02*
X1481425Y-1377143D01*
X1481425Y-1377143D02*
X1509997Y-1377143D01*
X1509997Y-1377143D02*
X1529045Y-1386667D01*
X1529045Y-1386667D02*
X1538568Y-1405714D01*
X1538568Y-1405714D02*
X1538568Y-1510476D01*
X1896664Y-1300952D02*
X1725235Y-1558095D01*
X2121426Y-1310476D02*
X2140473Y-1310476D01*
X2140473Y-1310476D02*
X2159521Y-1320000D01*
X2159521Y-1320000D02*
X2169045Y-1329524D01*
X2169045Y-1329524D02*
X2178568Y-1348571D01*
X2178568Y-1348571D02*
X2188092Y-1386667D01*
X2188092Y-1386667D02*
X2188092Y-1434286D01*
X2188092Y-1434286D02*
X2178568Y-1472381D01*
X2178568Y-1472381D02*
X2169045Y-1491428D01*
X2169045Y-1491428D02*
X2159521Y-1500952D01*
X2159521Y-1500952D02*
X2140473Y-1510476D01*
X2140473Y-1510476D02*
X2121426Y-1510476D01*
X2121426Y-1510476D02*
X2102378Y-1500952D01*
X2102378Y-1500952D02*
X2092854Y-1491428D01*
X2092854Y-1491428D02*
X2083330Y-1472381D01*
X2083330Y-1472381D02*
X2073806Y-1434286D01*
X2073806Y-1434286D02*
X2073806Y-1386667D01*
X2073806Y-1386667D02*
X2083330Y-1348571D01*
X2083330Y-1348571D02*
X2092854Y-1329524D01*
X2092854Y-1329524D02*
X2102378Y-1320000D01*
X2102378Y-1320000D02*
X2121426Y-1310476D01*
X2273807Y-1491428D02*
X2283330Y-1500952D01*
X2283330Y-1500952D02*
X2273807Y-1510476D01*
X2273807Y-1510476D02*
X2264283Y-1500952D01*
X2264283Y-1500952D02*
X2273807Y-1491428D01*
X2273807Y-1491428D02*
X2273807Y-1510476D01*
X2407140Y-1310476D02*
X2426188Y-1310476D01*
X2426188Y-1310476D02*
X2445235Y-1320000D01*
X2445235Y-1320000D02*
X2454759Y-1329524D01*
X2454759Y-1329524D02*
X2464283Y-1348571D01*
X2464283Y-1348571D02*
X2473807Y-1386667D01*
X2473807Y-1386667D02*
X2473807Y-1434286D01*
X2473807Y-1434286D02*
X2464283Y-1472381D01*
X2464283Y-1472381D02*
X2454759Y-1491428D01*
X2454759Y-1491428D02*
X2445235Y-1500952D01*
X2445235Y-1500952D02*
X2426188Y-1510476D01*
X2426188Y-1510476D02*
X2407140Y-1510476D01*
X2407140Y-1510476D02*
X2388092Y-1500952D01*
X2388092Y-1500952D02*
X2378568Y-1491428D01*
X2378568Y-1491428D02*
X2369045Y-1472381D01*
X2369045Y-1472381D02*
X2359521Y-1434286D01*
X2359521Y-1434286D02*
X2359521Y-1386667D01*
X2359521Y-1386667D02*
X2369045Y-1348571D01*
X2369045Y-1348571D02*
X2378568Y-1329524D01*
X2378568Y-1329524D02*
X2388092Y-1320000D01*
X2388092Y-1320000D02*
X2407140Y-1310476D01*
X2645235Y-1377143D02*
X2645235Y-1510476D01*
X2597616Y-1300952D02*
X2549997Y-1443809D01*
X2549997Y-1443809D02*
X2673807Y-1443809D01*
X2730949Y-1310476D02*
X2864283Y-1310476D01*
X2864283Y-1310476D02*
X2778568Y-1510476D01*
X2930949Y-1329524D02*
X2940473Y-1320000D01*
X2940473Y-1320000D02*
X2959521Y-1310476D01*
X2959521Y-1310476D02*
X3007140Y-1310476D01*
X3007140Y-1310476D02*
X3026187Y-1320000D01*
X3026187Y-1320000D02*
X3035711Y-1329524D01*
X3035711Y-1329524D02*
X3045235Y-1348571D01*
X3045235Y-1348571D02*
X3045235Y-1367619D01*
X3045235Y-1367619D02*
X3035711Y-1396190D01*
X3035711Y-1396190D02*
X2921426Y-1510476D01*
X2921426Y-1510476D02*
X3045235Y-1510476D01*
X3121426Y-1310476D02*
X3121426Y-1348571D01*
X3197616Y-1310476D02*
X3197616Y-1348571D01*
X3460473Y-1586667D02*
X3450949Y-1577143D01*
X3450949Y-1577143D02*
X3431902Y-1548571D01*
X3431902Y-1548571D02*
X3422378Y-1529524D01*
X3422378Y-1529524D02*
X3412854Y-1500952D01*
X3412854Y-1500952D02*
X3403330Y-1453333D01*
X3403330Y-1453333D02*
X3403330Y-1415238D01*
X3403330Y-1415238D02*
X3412854Y-1367619D01*
X3412854Y-1367619D02*
X3422378Y-1339048D01*
X3422378Y-1339048D02*
X3431902Y-1320000D01*
X3431902Y-1320000D02*
X3450949Y-1291429D01*
X3450949Y-1291429D02*
X3460473Y-1281905D01*
X3622378Y-1310476D02*
X3584283Y-1310476D01*
X3584283Y-1310476D02*
X3565235Y-1320000D01*
X3565235Y-1320000D02*
X3555711Y-1329524D01*
X3555711Y-1329524D02*
X3536664Y-1358095D01*
X3536664Y-1358095D02*
X3527140Y-1396190D01*
X3527140Y-1396190D02*
X3527140Y-1472381D01*
X3527140Y-1472381D02*
X3536664Y-1491428D01*
X3536664Y-1491428D02*
X3546187Y-1500952D01*
X3546187Y-1500952D02*
X3565235Y-1510476D01*
X3565235Y-1510476D02*
X3603330Y-1510476D01*
X3603330Y-1510476D02*
X3622378Y-1500952D01*
X3622378Y-1500952D02*
X3631902Y-1491428D01*
X3631902Y-1491428D02*
X3641426Y-1472381D01*
X3641426Y-1472381D02*
X3641426Y-1424762D01*
X3641426Y-1424762D02*
X3631902Y-1405714D01*
X3631902Y-1405714D02*
X3622378Y-1396190D01*
X3622378Y-1396190D02*
X3603330Y-1386667D01*
X3603330Y-1386667D02*
X3565235Y-1386667D01*
X3565235Y-1386667D02*
X3546187Y-1396190D01*
X3546187Y-1396190D02*
X3536664Y-1405714D01*
X3536664Y-1405714D02*
X3527140Y-1424762D01*
X3847140Y-1510476D02*
X3847140Y-1310476D01*
X3932854Y-1510476D02*
X3932854Y-1405714D01*
X3932854Y-1405714D02*
X3923330Y-1386667D01*
X3923330Y-1386667D02*
X3904283Y-1377143D01*
X3904283Y-1377143D02*
X3875711Y-1377143D01*
X3875711Y-1377143D02*
X3856664Y-1386667D01*
X3856664Y-1386667D02*
X3847140Y-1396190D01*
X4056664Y-1510476D02*
X4037616Y-1500952D01*
X4037616Y-1500952D02*
X4028092Y-1491428D01*
X4028092Y-1491428D02*
X4018568Y-1472381D01*
X4018568Y-1472381D02*
X4018568Y-1415238D01*
X4018568Y-1415238D02*
X4028092Y-1396190D01*
X4028092Y-1396190D02*
X4037616Y-1386667D01*
X4037616Y-1386667D02*
X4056664Y-1377143D01*
X4056664Y-1377143D02*
X4085235Y-1377143D01*
X4085235Y-1377143D02*
X4104283Y-1386667D01*
X4104283Y-1386667D02*
X4113807Y-1396190D01*
X4113807Y-1396190D02*
X4123330Y-1415238D01*
X4123330Y-1415238D02*
X4123330Y-1472381D01*
X4123330Y-1472381D02*
X4113807Y-1491428D01*
X4113807Y-1491428D02*
X4104283Y-1500952D01*
X4104283Y-1500952D02*
X4085235Y-1510476D01*
X4085235Y-1510476D02*
X4056664Y-1510476D01*
X4237616Y-1510476D02*
X4218569Y-1500952D01*
X4218569Y-1500952D02*
X4209045Y-1481905D01*
X4209045Y-1481905D02*
X4209045Y-1310476D01*
X4389997Y-1500952D02*
X4370950Y-1510476D01*
X4370950Y-1510476D02*
X4332854Y-1510476D01*
X4332854Y-1510476D02*
X4313807Y-1500952D01*
X4313807Y-1500952D02*
X4304283Y-1481905D01*
X4304283Y-1481905D02*
X4304283Y-1405714D01*
X4304283Y-1405714D02*
X4313807Y-1386667D01*
X4313807Y-1386667D02*
X4332854Y-1377143D01*
X4332854Y-1377143D02*
X4370950Y-1377143D01*
X4370950Y-1377143D02*
X4389997Y-1386667D01*
X4389997Y-1386667D02*
X4399521Y-1405714D01*
X4399521Y-1405714D02*
X4399521Y-1424762D01*
X4399521Y-1424762D02*
X4304283Y-1443809D01*
X4475711Y-1500952D02*
X4494759Y-1510476D01*
X4494759Y-1510476D02*
X4532854Y-1510476D01*
X4532854Y-1510476D02*
X4551902Y-1500952D01*
X4551902Y-1500952D02*
X4561426Y-1481905D01*
X4561426Y-1481905D02*
X4561426Y-1472381D01*
X4561426Y-1472381D02*
X4551902Y-1453333D01*
X4551902Y-1453333D02*
X4532854Y-1443809D01*
X4532854Y-1443809D02*
X4504283Y-1443809D01*
X4504283Y-1443809D02*
X4485235Y-1434286D01*
X4485235Y-1434286D02*
X4475711Y-1415238D01*
X4475711Y-1415238D02*
X4475711Y-1405714D01*
X4475711Y-1405714D02*
X4485235Y-1386667D01*
X4485235Y-1386667D02*
X4504283Y-1377143D01*
X4504283Y-1377143D02*
X4532854Y-1377143D01*
X4532854Y-1377143D02*
X4551902Y-1386667D01*
X4628092Y-1586667D02*
X4637616Y-1577143D01*
X4637616Y-1577143D02*
X4656664Y-1548571D01*
X4656664Y-1548571D02*
X4666188Y-1529524D01*
X4666188Y-1529524D02*
X4675711Y-1500952D01*
X4675711Y-1500952D02*
X4685235Y-1453333D01*
X4685235Y-1453333D02*
X4685235Y-1415238D01*
X4685235Y-1415238D02*
X4675711Y-1367619D01*
X4675711Y-1367619D02*
X4666188Y-1339048D01*
X4666188Y-1339048D02*
X4656664Y-1320000D01*
X4656664Y-1320000D02*
X4637616Y-1291429D01*
X4637616Y-1291429D02*
X4628092Y-1281905D01*
D16*
X-79289Y-1776000D02*
X-4289Y-1701000D01*
X-79289Y-1626000D01*
X-154289Y-1701000D01*
X-79289Y-1776000D01*
D11*
X348092Y-1774476D02*
X233806Y-1774476D01*
X290949Y-1774476D02*
X290949Y-1574476D01*
X290949Y-1574476D02*
X271902Y-1603048D01*
X271902Y-1603048D02*
X252854Y-1622095D01*
X252854Y-1622095D02*
X233806Y-1631619D01*
X433806Y-1755428D02*
X443330Y-1764952D01*
X443330Y-1764952D02*
X433806Y-1774476D01*
X433806Y-1774476D02*
X424283Y-1764952D01*
X424283Y-1764952D02*
X433806Y-1755428D01*
X433806Y-1755428D02*
X433806Y-1774476D01*
X624283Y-1574476D02*
X529045Y-1574476D01*
X529045Y-1574476D02*
X519521Y-1669714D01*
X519521Y-1669714D02*
X529045Y-1660190D01*
X529045Y-1660190D02*
X548092Y-1650667D01*
X548092Y-1650667D02*
X595711Y-1650667D01*
X595711Y-1650667D02*
X614759Y-1660190D01*
X614759Y-1660190D02*
X624283Y-1669714D01*
X624283Y-1669714D02*
X633806Y-1688762D01*
X633806Y-1688762D02*
X633806Y-1736381D01*
X633806Y-1736381D02*
X624283Y-1755428D01*
X624283Y-1755428D02*
X614759Y-1764952D01*
X614759Y-1764952D02*
X595711Y-1774476D01*
X595711Y-1774476D02*
X548092Y-1774476D01*
X548092Y-1774476D02*
X529045Y-1764952D01*
X529045Y-1764952D02*
X519521Y-1755428D01*
X757616Y-1574476D02*
X776664Y-1574476D01*
X776664Y-1574476D02*
X795711Y-1584000D01*
X795711Y-1584000D02*
X805235Y-1593524D01*
X805235Y-1593524D02*
X814759Y-1612571D01*
X814759Y-1612571D02*
X824283Y-1650667D01*
X824283Y-1650667D02*
X824283Y-1698286D01*
X824283Y-1698286D02*
X814759Y-1736381D01*
X814759Y-1736381D02*
X805235Y-1755428D01*
X805235Y-1755428D02*
X795711Y-1764952D01*
X795711Y-1764952D02*
X776664Y-1774476D01*
X776664Y-1774476D02*
X757616Y-1774476D01*
X757616Y-1774476D02*
X738568Y-1764952D01*
X738568Y-1764952D02*
X729044Y-1755428D01*
X729044Y-1755428D02*
X719521Y-1736381D01*
X719521Y-1736381D02*
X709997Y-1698286D01*
X709997Y-1698286D02*
X709997Y-1650667D01*
X709997Y-1650667D02*
X719521Y-1612571D01*
X719521Y-1612571D02*
X729044Y-1593524D01*
X729044Y-1593524D02*
X738568Y-1584000D01*
X738568Y-1584000D02*
X757616Y-1574476D01*
X948092Y-1574476D02*
X967140Y-1574476D01*
X967140Y-1574476D02*
X986187Y-1584000D01*
X986187Y-1584000D02*
X995711Y-1593524D01*
X995711Y-1593524D02*
X1005235Y-1612571D01*
X1005235Y-1612571D02*
X1014759Y-1650667D01*
X1014759Y-1650667D02*
X1014759Y-1698286D01*
X1014759Y-1698286D02*
X1005235Y-1736381D01*
X1005235Y-1736381D02*
X995711Y-1755428D01*
X995711Y-1755428D02*
X986187Y-1764952D01*
X986187Y-1764952D02*
X967140Y-1774476D01*
X967140Y-1774476D02*
X948092Y-1774476D01*
X948092Y-1774476D02*
X929044Y-1764952D01*
X929044Y-1764952D02*
X919521Y-1755428D01*
X919521Y-1755428D02*
X909997Y-1736381D01*
X909997Y-1736381D02*
X900473Y-1698286D01*
X900473Y-1698286D02*
X900473Y-1650667D01*
X900473Y-1650667D02*
X909997Y-1612571D01*
X909997Y-1612571D02*
X919521Y-1593524D01*
X919521Y-1593524D02*
X929044Y-1584000D01*
X929044Y-1584000D02*
X948092Y-1574476D01*
X1100473Y-1774476D02*
X1100473Y-1641143D01*
X1100473Y-1660190D02*
X1109997Y-1650667D01*
X1109997Y-1650667D02*
X1129045Y-1641143D01*
X1129045Y-1641143D02*
X1157616Y-1641143D01*
X1157616Y-1641143D02*
X1176664Y-1650667D01*
X1176664Y-1650667D02*
X1186187Y-1669714D01*
X1186187Y-1669714D02*
X1186187Y-1774476D01*
X1186187Y-1669714D02*
X1195711Y-1650667D01*
X1195711Y-1650667D02*
X1214759Y-1641143D01*
X1214759Y-1641143D02*
X1243330Y-1641143D01*
X1243330Y-1641143D02*
X1262378Y-1650667D01*
X1262378Y-1650667D02*
X1271902Y-1669714D01*
X1271902Y-1669714D02*
X1271902Y-1774476D01*
X1367140Y-1774476D02*
X1367140Y-1641143D01*
X1367140Y-1660190D02*
X1376664Y-1650667D01*
X1376664Y-1650667D02*
X1395711Y-1641143D01*
X1395711Y-1641143D02*
X1424283Y-1641143D01*
X1424283Y-1641143D02*
X1443330Y-1650667D01*
X1443330Y-1650667D02*
X1452854Y-1669714D01*
X1452854Y-1669714D02*
X1452854Y-1774476D01*
X1452854Y-1669714D02*
X1462378Y-1650667D01*
X1462378Y-1650667D02*
X1481425Y-1641143D01*
X1481425Y-1641143D02*
X1509997Y-1641143D01*
X1509997Y-1641143D02*
X1529045Y-1650667D01*
X1529045Y-1650667D02*
X1538568Y-1669714D01*
X1538568Y-1669714D02*
X1538568Y-1774476D01*
X1896664Y-1564952D02*
X1725235Y-1822095D01*
X2121426Y-1574476D02*
X2140473Y-1574476D01*
X2140473Y-1574476D02*
X2159521Y-1584000D01*
X2159521Y-1584000D02*
X2169045Y-1593524D01*
X2169045Y-1593524D02*
X2178568Y-1612571D01*
X2178568Y-1612571D02*
X2188092Y-1650667D01*
X2188092Y-1650667D02*
X2188092Y-1698286D01*
X2188092Y-1698286D02*
X2178568Y-1736381D01*
X2178568Y-1736381D02*
X2169045Y-1755428D01*
X2169045Y-1755428D02*
X2159521Y-1764952D01*
X2159521Y-1764952D02*
X2140473Y-1774476D01*
X2140473Y-1774476D02*
X2121426Y-1774476D01*
X2121426Y-1774476D02*
X2102378Y-1764952D01*
X2102378Y-1764952D02*
X2092854Y-1755428D01*
X2092854Y-1755428D02*
X2083330Y-1736381D01*
X2083330Y-1736381D02*
X2073806Y-1698286D01*
X2073806Y-1698286D02*
X2073806Y-1650667D01*
X2073806Y-1650667D02*
X2083330Y-1612571D01*
X2083330Y-1612571D02*
X2092854Y-1593524D01*
X2092854Y-1593524D02*
X2102378Y-1584000D01*
X2102378Y-1584000D02*
X2121426Y-1574476D01*
X2273807Y-1755428D02*
X2283330Y-1764952D01*
X2283330Y-1764952D02*
X2273807Y-1774476D01*
X2273807Y-1774476D02*
X2264283Y-1764952D01*
X2264283Y-1764952D02*
X2273807Y-1755428D01*
X2273807Y-1755428D02*
X2273807Y-1774476D01*
X2407140Y-1574476D02*
X2426188Y-1574476D01*
X2426188Y-1574476D02*
X2445235Y-1584000D01*
X2445235Y-1584000D02*
X2454759Y-1593524D01*
X2454759Y-1593524D02*
X2464283Y-1612571D01*
X2464283Y-1612571D02*
X2473807Y-1650667D01*
X2473807Y-1650667D02*
X2473807Y-1698286D01*
X2473807Y-1698286D02*
X2464283Y-1736381D01*
X2464283Y-1736381D02*
X2454759Y-1755428D01*
X2454759Y-1755428D02*
X2445235Y-1764952D01*
X2445235Y-1764952D02*
X2426188Y-1774476D01*
X2426188Y-1774476D02*
X2407140Y-1774476D01*
X2407140Y-1774476D02*
X2388092Y-1764952D01*
X2388092Y-1764952D02*
X2378568Y-1755428D01*
X2378568Y-1755428D02*
X2369045Y-1736381D01*
X2369045Y-1736381D02*
X2359521Y-1698286D01*
X2359521Y-1698286D02*
X2359521Y-1650667D01*
X2359521Y-1650667D02*
X2369045Y-1612571D01*
X2369045Y-1612571D02*
X2378568Y-1593524D01*
X2378568Y-1593524D02*
X2388092Y-1584000D01*
X2388092Y-1584000D02*
X2407140Y-1574476D01*
X2654759Y-1574476D02*
X2559521Y-1574476D01*
X2559521Y-1574476D02*
X2549997Y-1669714D01*
X2549997Y-1669714D02*
X2559521Y-1660190D01*
X2559521Y-1660190D02*
X2578568Y-1650667D01*
X2578568Y-1650667D02*
X2626188Y-1650667D01*
X2626188Y-1650667D02*
X2645235Y-1660190D01*
X2645235Y-1660190D02*
X2654759Y-1669714D01*
X2654759Y-1669714D02*
X2664283Y-1688762D01*
X2664283Y-1688762D02*
X2664283Y-1736381D01*
X2664283Y-1736381D02*
X2654759Y-1755428D01*
X2654759Y-1755428D02*
X2645235Y-1764952D01*
X2645235Y-1764952D02*
X2626188Y-1774476D01*
X2626188Y-1774476D02*
X2578568Y-1774476D01*
X2578568Y-1774476D02*
X2559521Y-1764952D01*
X2559521Y-1764952D02*
X2549997Y-1755428D01*
X2759521Y-1774476D02*
X2797616Y-1774476D01*
X2797616Y-1774476D02*
X2816664Y-1764952D01*
X2816664Y-1764952D02*
X2826187Y-1755428D01*
X2826187Y-1755428D02*
X2845235Y-1726857D01*
X2845235Y-1726857D02*
X2854759Y-1688762D01*
X2854759Y-1688762D02*
X2854759Y-1612571D01*
X2854759Y-1612571D02*
X2845235Y-1593524D01*
X2845235Y-1593524D02*
X2835711Y-1584000D01*
X2835711Y-1584000D02*
X2816664Y-1574476D01*
X2816664Y-1574476D02*
X2778568Y-1574476D01*
X2778568Y-1574476D02*
X2759521Y-1584000D01*
X2759521Y-1584000D02*
X2749997Y-1593524D01*
X2749997Y-1593524D02*
X2740473Y-1612571D01*
X2740473Y-1612571D02*
X2740473Y-1660190D01*
X2740473Y-1660190D02*
X2749997Y-1679238D01*
X2749997Y-1679238D02*
X2759521Y-1688762D01*
X2759521Y-1688762D02*
X2778568Y-1698286D01*
X2778568Y-1698286D02*
X2816664Y-1698286D01*
X2816664Y-1698286D02*
X2835711Y-1688762D01*
X2835711Y-1688762D02*
X2845235Y-1679238D01*
X2845235Y-1679238D02*
X2854759Y-1660190D01*
X3045235Y-1774476D02*
X2930949Y-1774476D01*
X2988092Y-1774476D02*
X2988092Y-1574476D01*
X2988092Y-1574476D02*
X2969045Y-1603048D01*
X2969045Y-1603048D02*
X2949997Y-1622095D01*
X2949997Y-1622095D02*
X2930949Y-1631619D01*
X3121426Y-1574476D02*
X3121426Y-1612571D01*
X3197616Y-1574476D02*
X3197616Y-1612571D01*
X3460473Y-1850667D02*
X3450949Y-1841143D01*
X3450949Y-1841143D02*
X3431902Y-1812571D01*
X3431902Y-1812571D02*
X3422378Y-1793524D01*
X3422378Y-1793524D02*
X3412854Y-1764952D01*
X3412854Y-1764952D02*
X3403330Y-1717333D01*
X3403330Y-1717333D02*
X3403330Y-1679238D01*
X3403330Y-1679238D02*
X3412854Y-1631619D01*
X3412854Y-1631619D02*
X3422378Y-1603048D01*
X3422378Y-1603048D02*
X3431902Y-1584000D01*
X3431902Y-1584000D02*
X3450949Y-1555428D01*
X3450949Y-1555428D02*
X3460473Y-1545905D01*
X3622378Y-1641143D02*
X3622378Y-1774476D01*
X3574759Y-1564952D02*
X3527140Y-1707809D01*
X3527140Y-1707809D02*
X3650949Y-1707809D01*
X3812854Y-1574476D02*
X3774759Y-1574476D01*
X3774759Y-1574476D02*
X3755711Y-1584000D01*
X3755711Y-1584000D02*
X3746187Y-1593524D01*
X3746187Y-1593524D02*
X3727140Y-1622095D01*
X3727140Y-1622095D02*
X3717616Y-1660190D01*
X3717616Y-1660190D02*
X3717616Y-1736381D01*
X3717616Y-1736381D02*
X3727140Y-1755428D01*
X3727140Y-1755428D02*
X3736664Y-1764952D01*
X3736664Y-1764952D02*
X3755711Y-1774476D01*
X3755711Y-1774476D02*
X3793807Y-1774476D01*
X3793807Y-1774476D02*
X3812854Y-1764952D01*
X3812854Y-1764952D02*
X3822378Y-1755428D01*
X3822378Y-1755428D02*
X3831902Y-1736381D01*
X3831902Y-1736381D02*
X3831902Y-1688762D01*
X3831902Y-1688762D02*
X3822378Y-1669714D01*
X3822378Y-1669714D02*
X3812854Y-1660190D01*
X3812854Y-1660190D02*
X3793807Y-1650667D01*
X3793807Y-1650667D02*
X3755711Y-1650667D01*
X3755711Y-1650667D02*
X3736664Y-1660190D01*
X3736664Y-1660190D02*
X3727140Y-1669714D01*
X3727140Y-1669714D02*
X3717616Y-1688762D01*
X4037616Y-1774476D02*
X4037616Y-1574476D01*
X4123330Y-1774476D02*
X4123330Y-1669714D01*
X4123330Y-1669714D02*
X4113807Y-1650667D01*
X4113807Y-1650667D02*
X4094759Y-1641143D01*
X4094759Y-1641143D02*
X4066187Y-1641143D01*
X4066187Y-1641143D02*
X4047140Y-1650667D01*
X4047140Y-1650667D02*
X4037616Y-1660190D01*
X4247140Y-1774476D02*
X4228092Y-1764952D01*
X4228092Y-1764952D02*
X4218569Y-1755428D01*
X4218569Y-1755428D02*
X4209045Y-1736381D01*
X4209045Y-1736381D02*
X4209045Y-1679238D01*
X4209045Y-1679238D02*
X4218569Y-1660190D01*
X4218569Y-1660190D02*
X4228092Y-1650667D01*
X4228092Y-1650667D02*
X4247140Y-1641143D01*
X4247140Y-1641143D02*
X4275711Y-1641143D01*
X4275711Y-1641143D02*
X4294759Y-1650667D01*
X4294759Y-1650667D02*
X4304283Y-1660190D01*
X4304283Y-1660190D02*
X4313807Y-1679238D01*
X4313807Y-1679238D02*
X4313807Y-1736381D01*
X4313807Y-1736381D02*
X4304283Y-1755428D01*
X4304283Y-1755428D02*
X4294759Y-1764952D01*
X4294759Y-1764952D02*
X4275711Y-1774476D01*
X4275711Y-1774476D02*
X4247140Y-1774476D01*
X4428092Y-1774476D02*
X4409045Y-1764952D01*
X4409045Y-1764952D02*
X4399521Y-1745905D01*
X4399521Y-1745905D02*
X4399521Y-1574476D01*
X4580473Y-1764952D02*
X4561426Y-1774476D01*
X4561426Y-1774476D02*
X4523330Y-1774476D01*
X4523330Y-1774476D02*
X4504283Y-1764952D01*
X4504283Y-1764952D02*
X4494759Y-1745905D01*
X4494759Y-1745905D02*
X4494759Y-1669714D01*
X4494759Y-1669714D02*
X4504283Y-1650667D01*
X4504283Y-1650667D02*
X4523330Y-1641143D01*
X4523330Y-1641143D02*
X4561426Y-1641143D01*
X4561426Y-1641143D02*
X4580473Y-1650667D01*
X4580473Y-1650667D02*
X4589997Y-1669714D01*
X4589997Y-1669714D02*
X4589997Y-1688762D01*
X4589997Y-1688762D02*
X4494759Y-1707809D01*
X4666188Y-1764952D02*
X4685235Y-1774476D01*
X4685235Y-1774476D02*
X4723330Y-1774476D01*
X4723330Y-1774476D02*
X4742378Y-1764952D01*
X4742378Y-1764952D02*
X4751902Y-1745905D01*
X4751902Y-1745905D02*
X4751902Y-1736381D01*
X4751902Y-1736381D02*
X4742378Y-1717333D01*
X4742378Y-1717333D02*
X4723330Y-1707809D01*
X4723330Y-1707809D02*
X4694759Y-1707809D01*
X4694759Y-1707809D02*
X4675711Y-1698286D01*
X4675711Y-1698286D02*
X4666188Y-1679238D01*
X4666188Y-1679238D02*
X4666188Y-1669714D01*
X4666188Y-1669714D02*
X4675711Y-1650667D01*
X4675711Y-1650667D02*
X4694759Y-1641143D01*
X4694759Y-1641143D02*
X4723330Y-1641143D01*
X4723330Y-1641143D02*
X4742378Y-1650667D01*
X4818569Y-1850667D02*
X4828092Y-1841143D01*
X4828092Y-1841143D02*
X4847140Y-1812571D01*
X4847140Y-1812571D02*
X4856664Y-1793524D01*
X4856664Y-1793524D02*
X4866188Y-1764952D01*
X4866188Y-1764952D02*
X4875711Y-1717333D01*
X4875711Y-1717333D02*
X4875711Y-1679238D01*
X4875711Y-1679238D02*
X4866188Y-1631619D01*
X4866188Y-1631619D02*
X4856664Y-1603048D01*
X4856664Y-1603048D02*
X4847140Y-1584000D01*
X4847140Y-1584000D02*
X4828092Y-1555428D01*
X4828092Y-1555428D02*
X4818569Y-1545905D01*
D17*
X-174289Y-1886000D02*
X-4289Y-2056000D01*
X-4289Y-1886000D02*
X-174289Y-2056000D01*
X-4289Y-1971000D02*
G75*
G03*
X-4289Y-1971000I-85000J0D01*
G01*
D11*
X348092Y-2044476D02*
X233806Y-2044476D01*
X290949Y-2044476D02*
X290949Y-1844476D01*
X290949Y-1844476D02*
X271902Y-1873048D01*
X271902Y-1873048D02*
X252854Y-1892095D01*
X252854Y-1892095D02*
X233806Y-1901619D01*
X433806Y-2025428D02*
X443330Y-2034952D01*
X443330Y-2034952D02*
X433806Y-2044476D01*
X433806Y-2044476D02*
X424283Y-2034952D01*
X424283Y-2034952D02*
X433806Y-2025428D01*
X433806Y-2025428D02*
X433806Y-2044476D01*
X509997Y-1844476D02*
X643330Y-1844476D01*
X643330Y-1844476D02*
X557616Y-2044476D01*
X757616Y-1844476D02*
X776664Y-1844476D01*
X776664Y-1844476D02*
X795711Y-1854000D01*
X795711Y-1854000D02*
X805235Y-1863524D01*
X805235Y-1863524D02*
X814759Y-1882571D01*
X814759Y-1882571D02*
X824283Y-1920667D01*
X824283Y-1920667D02*
X824283Y-1968286D01*
X824283Y-1968286D02*
X814759Y-2006381D01*
X814759Y-2006381D02*
X805235Y-2025428D01*
X805235Y-2025428D02*
X795711Y-2034952D01*
X795711Y-2034952D02*
X776664Y-2044476D01*
X776664Y-2044476D02*
X757616Y-2044476D01*
X757616Y-2044476D02*
X738568Y-2034952D01*
X738568Y-2034952D02*
X729044Y-2025428D01*
X729044Y-2025428D02*
X719521Y-2006381D01*
X719521Y-2006381D02*
X709997Y-1968286D01*
X709997Y-1968286D02*
X709997Y-1920667D01*
X709997Y-1920667D02*
X719521Y-1882571D01*
X719521Y-1882571D02*
X729044Y-1863524D01*
X729044Y-1863524D02*
X738568Y-1854000D01*
X738568Y-1854000D02*
X757616Y-1844476D01*
X948092Y-1844476D02*
X967140Y-1844476D01*
X967140Y-1844476D02*
X986187Y-1854000D01*
X986187Y-1854000D02*
X995711Y-1863524D01*
X995711Y-1863524D02*
X1005235Y-1882571D01*
X1005235Y-1882571D02*
X1014759Y-1920667D01*
X1014759Y-1920667D02*
X1014759Y-1968286D01*
X1014759Y-1968286D02*
X1005235Y-2006381D01*
X1005235Y-2006381D02*
X995711Y-2025428D01*
X995711Y-2025428D02*
X986187Y-2034952D01*
X986187Y-2034952D02*
X967140Y-2044476D01*
X967140Y-2044476D02*
X948092Y-2044476D01*
X948092Y-2044476D02*
X929044Y-2034952D01*
X929044Y-2034952D02*
X919521Y-2025428D01*
X919521Y-2025428D02*
X909997Y-2006381D01*
X909997Y-2006381D02*
X900473Y-1968286D01*
X900473Y-1968286D02*
X900473Y-1920667D01*
X900473Y-1920667D02*
X909997Y-1882571D01*
X909997Y-1882571D02*
X919521Y-1863524D01*
X919521Y-1863524D02*
X929044Y-1854000D01*
X929044Y-1854000D02*
X948092Y-1844476D01*
X1100473Y-2044476D02*
X1100473Y-1911143D01*
X1100473Y-1930190D02*
X1109997Y-1920667D01*
X1109997Y-1920667D02*
X1129045Y-1911143D01*
X1129045Y-1911143D02*
X1157616Y-1911143D01*
X1157616Y-1911143D02*
X1176664Y-1920667D01*
X1176664Y-1920667D02*
X1186187Y-1939714D01*
X1186187Y-1939714D02*
X1186187Y-2044476D01*
X1186187Y-1939714D02*
X1195711Y-1920667D01*
X1195711Y-1920667D02*
X1214759Y-1911143D01*
X1214759Y-1911143D02*
X1243330Y-1911143D01*
X1243330Y-1911143D02*
X1262378Y-1920667D01*
X1262378Y-1920667D02*
X1271902Y-1939714D01*
X1271902Y-1939714D02*
X1271902Y-2044476D01*
X1367140Y-2044476D02*
X1367140Y-1911143D01*
X1367140Y-1930190D02*
X1376664Y-1920667D01*
X1376664Y-1920667D02*
X1395711Y-1911143D01*
X1395711Y-1911143D02*
X1424283Y-1911143D01*
X1424283Y-1911143D02*
X1443330Y-1920667D01*
X1443330Y-1920667D02*
X1452854Y-1939714D01*
X1452854Y-1939714D02*
X1452854Y-2044476D01*
X1452854Y-1939714D02*
X1462378Y-1920667D01*
X1462378Y-1920667D02*
X1481425Y-1911143D01*
X1481425Y-1911143D02*
X1509997Y-1911143D01*
X1509997Y-1911143D02*
X1529045Y-1920667D01*
X1529045Y-1920667D02*
X1538568Y-1939714D01*
X1538568Y-1939714D02*
X1538568Y-2044476D01*
X1896664Y-1834952D02*
X1725235Y-2092095D01*
X2121426Y-1844476D02*
X2140473Y-1844476D01*
X2140473Y-1844476D02*
X2159521Y-1854000D01*
X2159521Y-1854000D02*
X2169045Y-1863524D01*
X2169045Y-1863524D02*
X2178568Y-1882571D01*
X2178568Y-1882571D02*
X2188092Y-1920667D01*
X2188092Y-1920667D02*
X2188092Y-1968286D01*
X2188092Y-1968286D02*
X2178568Y-2006381D01*
X2178568Y-2006381D02*
X2169045Y-2025428D01*
X2169045Y-2025428D02*
X2159521Y-2034952D01*
X2159521Y-2034952D02*
X2140473Y-2044476D01*
X2140473Y-2044476D02*
X2121426Y-2044476D01*
X2121426Y-2044476D02*
X2102378Y-2034952D01*
X2102378Y-2034952D02*
X2092854Y-2025428D01*
X2092854Y-2025428D02*
X2083330Y-2006381D01*
X2083330Y-2006381D02*
X2073806Y-1968286D01*
X2073806Y-1968286D02*
X2073806Y-1920667D01*
X2073806Y-1920667D02*
X2083330Y-1882571D01*
X2083330Y-1882571D02*
X2092854Y-1863524D01*
X2092854Y-1863524D02*
X2102378Y-1854000D01*
X2102378Y-1854000D02*
X2121426Y-1844476D01*
X2273807Y-2025428D02*
X2283330Y-2034952D01*
X2283330Y-2034952D02*
X2273807Y-2044476D01*
X2273807Y-2044476D02*
X2264283Y-2034952D01*
X2264283Y-2034952D02*
X2273807Y-2025428D01*
X2273807Y-2025428D02*
X2273807Y-2044476D01*
X2407140Y-1844476D02*
X2426188Y-1844476D01*
X2426188Y-1844476D02*
X2445235Y-1854000D01*
X2445235Y-1854000D02*
X2454759Y-1863524D01*
X2454759Y-1863524D02*
X2464283Y-1882571D01*
X2464283Y-1882571D02*
X2473807Y-1920667D01*
X2473807Y-1920667D02*
X2473807Y-1968286D01*
X2473807Y-1968286D02*
X2464283Y-2006381D01*
X2464283Y-2006381D02*
X2454759Y-2025428D01*
X2454759Y-2025428D02*
X2445235Y-2034952D01*
X2445235Y-2034952D02*
X2426188Y-2044476D01*
X2426188Y-2044476D02*
X2407140Y-2044476D01*
X2407140Y-2044476D02*
X2388092Y-2034952D01*
X2388092Y-2034952D02*
X2378568Y-2025428D01*
X2378568Y-2025428D02*
X2369045Y-2006381D01*
X2369045Y-2006381D02*
X2359521Y-1968286D01*
X2359521Y-1968286D02*
X2359521Y-1920667D01*
X2359521Y-1920667D02*
X2369045Y-1882571D01*
X2369045Y-1882571D02*
X2378568Y-1863524D01*
X2378568Y-1863524D02*
X2388092Y-1854000D01*
X2388092Y-1854000D02*
X2407140Y-1844476D01*
X2645235Y-1844476D02*
X2607140Y-1844476D01*
X2607140Y-1844476D02*
X2588092Y-1854000D01*
X2588092Y-1854000D02*
X2578568Y-1863524D01*
X2578568Y-1863524D02*
X2559521Y-1892095D01*
X2559521Y-1892095D02*
X2549997Y-1930190D01*
X2549997Y-1930190D02*
X2549997Y-2006381D01*
X2549997Y-2006381D02*
X2559521Y-2025428D01*
X2559521Y-2025428D02*
X2569045Y-2034952D01*
X2569045Y-2034952D02*
X2588092Y-2044476D01*
X2588092Y-2044476D02*
X2626188Y-2044476D01*
X2626188Y-2044476D02*
X2645235Y-2034952D01*
X2645235Y-2034952D02*
X2654759Y-2025428D01*
X2654759Y-2025428D02*
X2664283Y-2006381D01*
X2664283Y-2006381D02*
X2664283Y-1958762D01*
X2664283Y-1958762D02*
X2654759Y-1939714D01*
X2654759Y-1939714D02*
X2645235Y-1930190D01*
X2645235Y-1930190D02*
X2626188Y-1920667D01*
X2626188Y-1920667D02*
X2588092Y-1920667D01*
X2588092Y-1920667D02*
X2569045Y-1930190D01*
X2569045Y-1930190D02*
X2559521Y-1939714D01*
X2559521Y-1939714D02*
X2549997Y-1958762D01*
X2835711Y-1844476D02*
X2797616Y-1844476D01*
X2797616Y-1844476D02*
X2778568Y-1854000D01*
X2778568Y-1854000D02*
X2769045Y-1863524D01*
X2769045Y-1863524D02*
X2749997Y-1892095D01*
X2749997Y-1892095D02*
X2740473Y-1930190D01*
X2740473Y-1930190D02*
X2740473Y-2006381D01*
X2740473Y-2006381D02*
X2749997Y-2025428D01*
X2749997Y-2025428D02*
X2759521Y-2034952D01*
X2759521Y-2034952D02*
X2778568Y-2044476D01*
X2778568Y-2044476D02*
X2816664Y-2044476D01*
X2816664Y-2044476D02*
X2835711Y-2034952D01*
X2835711Y-2034952D02*
X2845235Y-2025428D01*
X2845235Y-2025428D02*
X2854759Y-2006381D01*
X2854759Y-2006381D02*
X2854759Y-1958762D01*
X2854759Y-1958762D02*
X2845235Y-1939714D01*
X2845235Y-1939714D02*
X2835711Y-1930190D01*
X2835711Y-1930190D02*
X2816664Y-1920667D01*
X2816664Y-1920667D02*
X2778568Y-1920667D01*
X2778568Y-1920667D02*
X2759521Y-1930190D01*
X2759521Y-1930190D02*
X2749997Y-1939714D01*
X2749997Y-1939714D02*
X2740473Y-1958762D01*
X2949997Y-2044476D02*
X2988092Y-2044476D01*
X2988092Y-2044476D02*
X3007140Y-2034952D01*
X3007140Y-2034952D02*
X3016664Y-2025428D01*
X3016664Y-2025428D02*
X3035711Y-1996857D01*
X3035711Y-1996857D02*
X3045235Y-1958762D01*
X3045235Y-1958762D02*
X3045235Y-1882571D01*
X3045235Y-1882571D02*
X3035711Y-1863524D01*
X3035711Y-1863524D02*
X3026187Y-1854000D01*
X3026187Y-1854000D02*
X3007140Y-1844476D01*
X3007140Y-1844476D02*
X2969045Y-1844476D01*
X2969045Y-1844476D02*
X2949997Y-1854000D01*
X2949997Y-1854000D02*
X2940473Y-1863524D01*
X2940473Y-1863524D02*
X2930949Y-1882571D01*
X2930949Y-1882571D02*
X2930949Y-1930190D01*
X2930949Y-1930190D02*
X2940473Y-1949238D01*
X2940473Y-1949238D02*
X2949997Y-1958762D01*
X2949997Y-1958762D02*
X2969045Y-1968286D01*
X2969045Y-1968286D02*
X3007140Y-1968286D01*
X3007140Y-1968286D02*
X3026187Y-1958762D01*
X3026187Y-1958762D02*
X3035711Y-1949238D01*
X3035711Y-1949238D02*
X3045235Y-1930190D01*
X3121426Y-1844476D02*
X3121426Y-1882571D01*
X3197616Y-1844476D02*
X3197616Y-1882571D01*
X3460473Y-2120667D02*
X3450949Y-2111143D01*
X3450949Y-2111143D02*
X3431902Y-2082571D01*
X3431902Y-2082571D02*
X3422378Y-2063524D01*
X3422378Y-2063524D02*
X3412854Y-2034952D01*
X3412854Y-2034952D02*
X3403330Y-1987333D01*
X3403330Y-1987333D02*
X3403330Y-1949238D01*
X3403330Y-1949238D02*
X3412854Y-1901619D01*
X3412854Y-1901619D02*
X3422378Y-1873048D01*
X3422378Y-1873048D02*
X3431902Y-1854000D01*
X3431902Y-1854000D02*
X3450949Y-1825428D01*
X3450949Y-1825428D02*
X3460473Y-1815905D01*
X3565235Y-1930190D02*
X3546187Y-1920667D01*
X3546187Y-1920667D02*
X3536664Y-1911143D01*
X3536664Y-1911143D02*
X3527140Y-1892095D01*
X3527140Y-1892095D02*
X3527140Y-1882571D01*
X3527140Y-1882571D02*
X3536664Y-1863524D01*
X3536664Y-1863524D02*
X3546187Y-1854000D01*
X3546187Y-1854000D02*
X3565235Y-1844476D01*
X3565235Y-1844476D02*
X3603330Y-1844476D01*
X3603330Y-1844476D02*
X3622378Y-1854000D01*
X3622378Y-1854000D02*
X3631902Y-1863524D01*
X3631902Y-1863524D02*
X3641426Y-1882571D01*
X3641426Y-1882571D02*
X3641426Y-1892095D01*
X3641426Y-1892095D02*
X3631902Y-1911143D01*
X3631902Y-1911143D02*
X3622378Y-1920667D01*
X3622378Y-1920667D02*
X3603330Y-1930190D01*
X3603330Y-1930190D02*
X3565235Y-1930190D01*
X3565235Y-1930190D02*
X3546187Y-1939714D01*
X3546187Y-1939714D02*
X3536664Y-1949238D01*
X3536664Y-1949238D02*
X3527140Y-1968286D01*
X3527140Y-1968286D02*
X3527140Y-2006381D01*
X3527140Y-2006381D02*
X3536664Y-2025428D01*
X3536664Y-2025428D02*
X3546187Y-2034952D01*
X3546187Y-2034952D02*
X3565235Y-2044476D01*
X3565235Y-2044476D02*
X3603330Y-2044476D01*
X3603330Y-2044476D02*
X3622378Y-2034952D01*
X3622378Y-2034952D02*
X3631902Y-2025428D01*
X3631902Y-2025428D02*
X3641426Y-2006381D01*
X3641426Y-2006381D02*
X3641426Y-1968286D01*
X3641426Y-1968286D02*
X3631902Y-1949238D01*
X3631902Y-1949238D02*
X3622378Y-1939714D01*
X3622378Y-1939714D02*
X3603330Y-1930190D01*
X3847140Y-2044476D02*
X3847140Y-1844476D01*
X3932854Y-2044476D02*
X3932854Y-1939714D01*
X3932854Y-1939714D02*
X3923330Y-1920667D01*
X3923330Y-1920667D02*
X3904283Y-1911143D01*
X3904283Y-1911143D02*
X3875711Y-1911143D01*
X3875711Y-1911143D02*
X3856664Y-1920667D01*
X3856664Y-1920667D02*
X3847140Y-1930190D01*
X4056664Y-2044476D02*
X4037616Y-2034952D01*
X4037616Y-2034952D02*
X4028092Y-2025428D01*
X4028092Y-2025428D02*
X4018568Y-2006381D01*
X4018568Y-2006381D02*
X4018568Y-1949238D01*
X4018568Y-1949238D02*
X4028092Y-1930190D01*
X4028092Y-1930190D02*
X4037616Y-1920667D01*
X4037616Y-1920667D02*
X4056664Y-1911143D01*
X4056664Y-1911143D02*
X4085235Y-1911143D01*
X4085235Y-1911143D02*
X4104283Y-1920667D01*
X4104283Y-1920667D02*
X4113807Y-1930190D01*
X4113807Y-1930190D02*
X4123330Y-1949238D01*
X4123330Y-1949238D02*
X4123330Y-2006381D01*
X4123330Y-2006381D02*
X4113807Y-2025428D01*
X4113807Y-2025428D02*
X4104283Y-2034952D01*
X4104283Y-2034952D02*
X4085235Y-2044476D01*
X4085235Y-2044476D02*
X4056664Y-2044476D01*
X4237616Y-2044476D02*
X4218569Y-2034952D01*
X4218569Y-2034952D02*
X4209045Y-2015905D01*
X4209045Y-2015905D02*
X4209045Y-1844476D01*
X4389997Y-2034952D02*
X4370950Y-2044476D01*
X4370950Y-2044476D02*
X4332854Y-2044476D01*
X4332854Y-2044476D02*
X4313807Y-2034952D01*
X4313807Y-2034952D02*
X4304283Y-2015905D01*
X4304283Y-2015905D02*
X4304283Y-1939714D01*
X4304283Y-1939714D02*
X4313807Y-1920667D01*
X4313807Y-1920667D02*
X4332854Y-1911143D01*
X4332854Y-1911143D02*
X4370950Y-1911143D01*
X4370950Y-1911143D02*
X4389997Y-1920667D01*
X4389997Y-1920667D02*
X4399521Y-1939714D01*
X4399521Y-1939714D02*
X4399521Y-1958762D01*
X4399521Y-1958762D02*
X4304283Y-1977809D01*
X4475711Y-2034952D02*
X4494759Y-2044476D01*
X4494759Y-2044476D02*
X4532854Y-2044476D01*
X4532854Y-2044476D02*
X4551902Y-2034952D01*
X4551902Y-2034952D02*
X4561426Y-2015905D01*
X4561426Y-2015905D02*
X4561426Y-2006381D01*
X4561426Y-2006381D02*
X4551902Y-1987333D01*
X4551902Y-1987333D02*
X4532854Y-1977809D01*
X4532854Y-1977809D02*
X4504283Y-1977809D01*
X4504283Y-1977809D02*
X4485235Y-1968286D01*
X4485235Y-1968286D02*
X4475711Y-1949238D01*
X4475711Y-1949238D02*
X4475711Y-1939714D01*
X4475711Y-1939714D02*
X4485235Y-1920667D01*
X4485235Y-1920667D02*
X4504283Y-1911143D01*
X4504283Y-1911143D02*
X4532854Y-1911143D01*
X4532854Y-1911143D02*
X4551902Y-1920667D01*
X4628092Y-2120667D02*
X4637616Y-2111143D01*
X4637616Y-2111143D02*
X4656664Y-2082571D01*
X4656664Y-2082571D02*
X4666188Y-2063524D01*
X4666188Y-2063524D02*
X4675711Y-2034952D01*
X4675711Y-2034952D02*
X4685235Y-1987333D01*
X4685235Y-1987333D02*
X4685235Y-1949238D01*
X4685235Y-1949238D02*
X4675711Y-1901619D01*
X4675711Y-1901619D02*
X4666188Y-1873048D01*
X4666188Y-1873048D02*
X4656664Y-1854000D01*
X4656664Y-1854000D02*
X4637616Y-1825428D01*
X4637616Y-1825428D02*
X4628092Y-1815905D01*
X-204289Y-2161000D02*
X-4289Y-2361000D01*
X-4289Y-2161000D02*
X-204289Y-2361000D01*
X-104289Y-2161000D02*
X-104289Y-2361000D01*
X-204289Y-2261000D02*
X-4289Y-2261000D01*
X233806Y-2153524D02*
X243330Y-2144000D01*
X243330Y-2144000D02*
X262378Y-2134476D01*
X262378Y-2134476D02*
X309997Y-2134476D01*
X309997Y-2134476D02*
X329045Y-2144000D01*
X329045Y-2144000D02*
X338568Y-2153524D01*
X338568Y-2153524D02*
X348092Y-2172571D01*
X348092Y-2172571D02*
X348092Y-2191619D01*
X348092Y-2191619D02*
X338568Y-2220190D01*
X338568Y-2220190D02*
X224283Y-2334476D01*
X224283Y-2334476D02*
X348092Y-2334476D01*
X433806Y-2315429D02*
X443330Y-2324952D01*
X443330Y-2324952D02*
X433806Y-2334476D01*
X433806Y-2334476D02*
X424283Y-2324952D01*
X424283Y-2324952D02*
X433806Y-2315429D01*
X433806Y-2315429D02*
X433806Y-2334476D01*
X509997Y-2134476D02*
X643330Y-2134476D01*
X643330Y-2134476D02*
X557616Y-2334476D01*
X757616Y-2134476D02*
X776664Y-2134476D01*
X776664Y-2134476D02*
X795711Y-2144000D01*
X795711Y-2144000D02*
X805235Y-2153524D01*
X805235Y-2153524D02*
X814759Y-2172571D01*
X814759Y-2172571D02*
X824283Y-2210667D01*
X824283Y-2210667D02*
X824283Y-2258286D01*
X824283Y-2258286D02*
X814759Y-2296381D01*
X814759Y-2296381D02*
X805235Y-2315429D01*
X805235Y-2315429D02*
X795711Y-2324952D01*
X795711Y-2324952D02*
X776664Y-2334476D01*
X776664Y-2334476D02*
X757616Y-2334476D01*
X757616Y-2334476D02*
X738568Y-2324952D01*
X738568Y-2324952D02*
X729044Y-2315429D01*
X729044Y-2315429D02*
X719521Y-2296381D01*
X719521Y-2296381D02*
X709997Y-2258286D01*
X709997Y-2258286D02*
X709997Y-2210667D01*
X709997Y-2210667D02*
X719521Y-2172571D01*
X719521Y-2172571D02*
X729044Y-2153524D01*
X729044Y-2153524D02*
X738568Y-2144000D01*
X738568Y-2144000D02*
X757616Y-2134476D01*
X948092Y-2134476D02*
X967140Y-2134476D01*
X967140Y-2134476D02*
X986187Y-2144000D01*
X986187Y-2144000D02*
X995711Y-2153524D01*
X995711Y-2153524D02*
X1005235Y-2172571D01*
X1005235Y-2172571D02*
X1014759Y-2210667D01*
X1014759Y-2210667D02*
X1014759Y-2258286D01*
X1014759Y-2258286D02*
X1005235Y-2296381D01*
X1005235Y-2296381D02*
X995711Y-2315429D01*
X995711Y-2315429D02*
X986187Y-2324952D01*
X986187Y-2324952D02*
X967140Y-2334476D01*
X967140Y-2334476D02*
X948092Y-2334476D01*
X948092Y-2334476D02*
X929044Y-2324952D01*
X929044Y-2324952D02*
X919521Y-2315429D01*
X919521Y-2315429D02*
X909997Y-2296381D01*
X909997Y-2296381D02*
X900473Y-2258286D01*
X900473Y-2258286D02*
X900473Y-2210667D01*
X900473Y-2210667D02*
X909997Y-2172571D01*
X909997Y-2172571D02*
X919521Y-2153524D01*
X919521Y-2153524D02*
X929044Y-2144000D01*
X929044Y-2144000D02*
X948092Y-2134476D01*
X1100473Y-2334476D02*
X1100473Y-2201143D01*
X1100473Y-2220190D02*
X1109997Y-2210667D01*
X1109997Y-2210667D02*
X1129045Y-2201143D01*
X1129045Y-2201143D02*
X1157616Y-2201143D01*
X1157616Y-2201143D02*
X1176664Y-2210667D01*
X1176664Y-2210667D02*
X1186187Y-2229714D01*
X1186187Y-2229714D02*
X1186187Y-2334476D01*
X1186187Y-2229714D02*
X1195711Y-2210667D01*
X1195711Y-2210667D02*
X1214759Y-2201143D01*
X1214759Y-2201143D02*
X1243330Y-2201143D01*
X1243330Y-2201143D02*
X1262378Y-2210667D01*
X1262378Y-2210667D02*
X1271902Y-2229714D01*
X1271902Y-2229714D02*
X1271902Y-2334476D01*
X1367140Y-2334476D02*
X1367140Y-2201143D01*
X1367140Y-2220190D02*
X1376664Y-2210667D01*
X1376664Y-2210667D02*
X1395711Y-2201143D01*
X1395711Y-2201143D02*
X1424283Y-2201143D01*
X1424283Y-2201143D02*
X1443330Y-2210667D01*
X1443330Y-2210667D02*
X1452854Y-2229714D01*
X1452854Y-2229714D02*
X1452854Y-2334476D01*
X1452854Y-2229714D02*
X1462378Y-2210667D01*
X1462378Y-2210667D02*
X1481425Y-2201143D01*
X1481425Y-2201143D02*
X1509997Y-2201143D01*
X1509997Y-2201143D02*
X1529045Y-2210667D01*
X1529045Y-2210667D02*
X1538568Y-2229714D01*
X1538568Y-2229714D02*
X1538568Y-2334476D01*
X1896664Y-2124952D02*
X1725235Y-2382095D01*
X2121426Y-2134476D02*
X2140473Y-2134476D01*
X2140473Y-2134476D02*
X2159521Y-2144000D01*
X2159521Y-2144000D02*
X2169045Y-2153524D01*
X2169045Y-2153524D02*
X2178568Y-2172571D01*
X2178568Y-2172571D02*
X2188092Y-2210667D01*
X2188092Y-2210667D02*
X2188092Y-2258286D01*
X2188092Y-2258286D02*
X2178568Y-2296381D01*
X2178568Y-2296381D02*
X2169045Y-2315429D01*
X2169045Y-2315429D02*
X2159521Y-2324952D01*
X2159521Y-2324952D02*
X2140473Y-2334476D01*
X2140473Y-2334476D02*
X2121426Y-2334476D01*
X2121426Y-2334476D02*
X2102378Y-2324952D01*
X2102378Y-2324952D02*
X2092854Y-2315429D01*
X2092854Y-2315429D02*
X2083330Y-2296381D01*
X2083330Y-2296381D02*
X2073806Y-2258286D01*
X2073806Y-2258286D02*
X2073806Y-2210667D01*
X2073806Y-2210667D02*
X2083330Y-2172571D01*
X2083330Y-2172571D02*
X2092854Y-2153524D01*
X2092854Y-2153524D02*
X2102378Y-2144000D01*
X2102378Y-2144000D02*
X2121426Y-2134476D01*
X2273807Y-2315429D02*
X2283330Y-2324952D01*
X2283330Y-2324952D02*
X2273807Y-2334476D01*
X2273807Y-2334476D02*
X2264283Y-2324952D01*
X2264283Y-2324952D02*
X2273807Y-2315429D01*
X2273807Y-2315429D02*
X2273807Y-2334476D01*
X2473807Y-2334476D02*
X2359521Y-2334476D01*
X2416664Y-2334476D02*
X2416664Y-2134476D01*
X2416664Y-2134476D02*
X2397616Y-2163048D01*
X2397616Y-2163048D02*
X2378568Y-2182095D01*
X2378568Y-2182095D02*
X2359521Y-2191619D01*
X2597616Y-2134476D02*
X2616664Y-2134476D01*
X2616664Y-2134476D02*
X2635711Y-2144000D01*
X2635711Y-2144000D02*
X2645235Y-2153524D01*
X2645235Y-2153524D02*
X2654759Y-2172571D01*
X2654759Y-2172571D02*
X2664283Y-2210667D01*
X2664283Y-2210667D02*
X2664283Y-2258286D01*
X2664283Y-2258286D02*
X2654759Y-2296381D01*
X2654759Y-2296381D02*
X2645235Y-2315429D01*
X2645235Y-2315429D02*
X2635711Y-2324952D01*
X2635711Y-2324952D02*
X2616664Y-2334476D01*
X2616664Y-2334476D02*
X2597616Y-2334476D01*
X2597616Y-2334476D02*
X2578568Y-2324952D01*
X2578568Y-2324952D02*
X2569045Y-2315429D01*
X2569045Y-2315429D02*
X2559521Y-2296381D01*
X2559521Y-2296381D02*
X2549997Y-2258286D01*
X2549997Y-2258286D02*
X2549997Y-2210667D01*
X2549997Y-2210667D02*
X2559521Y-2172571D01*
X2559521Y-2172571D02*
X2569045Y-2153524D01*
X2569045Y-2153524D02*
X2578568Y-2144000D01*
X2578568Y-2144000D02*
X2597616Y-2134476D01*
X2835711Y-2134476D02*
X2797616Y-2134476D01*
X2797616Y-2134476D02*
X2778568Y-2144000D01*
X2778568Y-2144000D02*
X2769045Y-2153524D01*
X2769045Y-2153524D02*
X2749997Y-2182095D01*
X2749997Y-2182095D02*
X2740473Y-2220190D01*
X2740473Y-2220190D02*
X2740473Y-2296381D01*
X2740473Y-2296381D02*
X2749997Y-2315429D01*
X2749997Y-2315429D02*
X2759521Y-2324952D01*
X2759521Y-2324952D02*
X2778568Y-2334476D01*
X2778568Y-2334476D02*
X2816664Y-2334476D01*
X2816664Y-2334476D02*
X2835711Y-2324952D01*
X2835711Y-2324952D02*
X2845235Y-2315429D01*
X2845235Y-2315429D02*
X2854759Y-2296381D01*
X2854759Y-2296381D02*
X2854759Y-2248762D01*
X2854759Y-2248762D02*
X2845235Y-2229714D01*
X2845235Y-2229714D02*
X2835711Y-2220190D01*
X2835711Y-2220190D02*
X2816664Y-2210667D01*
X2816664Y-2210667D02*
X2778568Y-2210667D01*
X2778568Y-2210667D02*
X2759521Y-2220190D01*
X2759521Y-2220190D02*
X2749997Y-2229714D01*
X2749997Y-2229714D02*
X2740473Y-2248762D01*
X2921426Y-2134476D02*
X3045235Y-2134476D01*
X3045235Y-2134476D02*
X2978568Y-2210667D01*
X2978568Y-2210667D02*
X3007140Y-2210667D01*
X3007140Y-2210667D02*
X3026187Y-2220190D01*
X3026187Y-2220190D02*
X3035711Y-2229714D01*
X3035711Y-2229714D02*
X3045235Y-2248762D01*
X3045235Y-2248762D02*
X3045235Y-2296381D01*
X3045235Y-2296381D02*
X3035711Y-2315429D01*
X3035711Y-2315429D02*
X3026187Y-2324952D01*
X3026187Y-2324952D02*
X3007140Y-2334476D01*
X3007140Y-2334476D02*
X2949997Y-2334476D01*
X2949997Y-2334476D02*
X2930949Y-2324952D01*
X2930949Y-2324952D02*
X2921426Y-2315429D01*
X3121426Y-2134476D02*
X3121426Y-2172571D01*
X3197616Y-2134476D02*
X3197616Y-2172571D01*
X3460473Y-2410667D02*
X3450949Y-2401143D01*
X3450949Y-2401143D02*
X3431902Y-2372571D01*
X3431902Y-2372571D02*
X3422378Y-2353524D01*
X3422378Y-2353524D02*
X3412854Y-2324952D01*
X3412854Y-2324952D02*
X3403330Y-2277333D01*
X3403330Y-2277333D02*
X3403330Y-2239238D01*
X3403330Y-2239238D02*
X3412854Y-2191619D01*
X3412854Y-2191619D02*
X3422378Y-2163048D01*
X3422378Y-2163048D02*
X3431902Y-2144000D01*
X3431902Y-2144000D02*
X3450949Y-2115429D01*
X3450949Y-2115429D02*
X3460473Y-2105905D01*
X3622378Y-2201143D02*
X3622378Y-2334476D01*
X3574759Y-2124952D02*
X3527140Y-2267810D01*
X3527140Y-2267810D02*
X3650949Y-2267810D01*
X3847140Y-2334476D02*
X3847140Y-2134476D01*
X3932854Y-2334476D02*
X3932854Y-2229714D01*
X3932854Y-2229714D02*
X3923330Y-2210667D01*
X3923330Y-2210667D02*
X3904283Y-2201143D01*
X3904283Y-2201143D02*
X3875711Y-2201143D01*
X3875711Y-2201143D02*
X3856664Y-2210667D01*
X3856664Y-2210667D02*
X3847140Y-2220190D01*
X4056664Y-2334476D02*
X4037616Y-2324952D01*
X4037616Y-2324952D02*
X4028092Y-2315429D01*
X4028092Y-2315429D02*
X4018568Y-2296381D01*
X4018568Y-2296381D02*
X4018568Y-2239238D01*
X4018568Y-2239238D02*
X4028092Y-2220190D01*
X4028092Y-2220190D02*
X4037616Y-2210667D01*
X4037616Y-2210667D02*
X4056664Y-2201143D01*
X4056664Y-2201143D02*
X4085235Y-2201143D01*
X4085235Y-2201143D02*
X4104283Y-2210667D01*
X4104283Y-2210667D02*
X4113807Y-2220190D01*
X4113807Y-2220190D02*
X4123330Y-2239238D01*
X4123330Y-2239238D02*
X4123330Y-2296381D01*
X4123330Y-2296381D02*
X4113807Y-2315429D01*
X4113807Y-2315429D02*
X4104283Y-2324952D01*
X4104283Y-2324952D02*
X4085235Y-2334476D01*
X4085235Y-2334476D02*
X4056664Y-2334476D01*
X4237616Y-2334476D02*
X4218569Y-2324952D01*
X4218569Y-2324952D02*
X4209045Y-2305905D01*
X4209045Y-2305905D02*
X4209045Y-2134476D01*
X4389997Y-2324952D02*
X4370950Y-2334476D01*
X4370950Y-2334476D02*
X4332854Y-2334476D01*
X4332854Y-2334476D02*
X4313807Y-2324952D01*
X4313807Y-2324952D02*
X4304283Y-2305905D01*
X4304283Y-2305905D02*
X4304283Y-2229714D01*
X4304283Y-2229714D02*
X4313807Y-2210667D01*
X4313807Y-2210667D02*
X4332854Y-2201143D01*
X4332854Y-2201143D02*
X4370950Y-2201143D01*
X4370950Y-2201143D02*
X4389997Y-2210667D01*
X4389997Y-2210667D02*
X4399521Y-2229714D01*
X4399521Y-2229714D02*
X4399521Y-2248762D01*
X4399521Y-2248762D02*
X4304283Y-2267810D01*
X4475711Y-2324952D02*
X4494759Y-2334476D01*
X4494759Y-2334476D02*
X4532854Y-2334476D01*
X4532854Y-2334476D02*
X4551902Y-2324952D01*
X4551902Y-2324952D02*
X4561426Y-2305905D01*
X4561426Y-2305905D02*
X4561426Y-2296381D01*
X4561426Y-2296381D02*
X4551902Y-2277333D01*
X4551902Y-2277333D02*
X4532854Y-2267810D01*
X4532854Y-2267810D02*
X4504283Y-2267810D01*
X4504283Y-2267810D02*
X4485235Y-2258286D01*
X4485235Y-2258286D02*
X4475711Y-2239238D01*
X4475711Y-2239238D02*
X4475711Y-2229714D01*
X4475711Y-2229714D02*
X4485235Y-2210667D01*
X4485235Y-2210667D02*
X4504283Y-2201143D01*
X4504283Y-2201143D02*
X4532854Y-2201143D01*
X4532854Y-2201143D02*
X4551902Y-2210667D01*
X4628092Y-2410667D02*
X4637616Y-2401143D01*
X4637616Y-2401143D02*
X4656664Y-2372571D01*
X4656664Y-2372571D02*
X4666188Y-2353524D01*
X4666188Y-2353524D02*
X4675711Y-2324952D01*
X4675711Y-2324952D02*
X4685235Y-2277333D01*
X4685235Y-2277333D02*
X4685235Y-2239238D01*
X4685235Y-2239238D02*
X4675711Y-2191619D01*
X4675711Y-2191619D02*
X4666188Y-2163048D01*
X4666188Y-2163048D02*
X4656664Y-2144000D01*
X4656664Y-2144000D02*
X4637616Y-2115429D01*
X4637616Y-2115429D02*
X4628092Y-2105905D01*
M02*
