M48
; DRILL file {KiCad (7.0.0)} date Mon Nov 11 13:12:49 2024
; FORMAT={-:-/ absolute / metric / decimal}
; #@! TF.CreationDate,2024-11-11T13:12:49+03:00
; #@! TF.GenerationSoftware,Kicad,Pcbnew,(7.0.0)
; #@! TF.FileFunction,Plated,1,2,PTH
FMAT,2
METRIC
; #@! TA.AperFunction,Plated,PTH,ViaDrill
T1C0.400
; #@! TA.AperFunction,Plated,PTH,ComponentDrill
T2C0.500
; #@! TA.AperFunction,Plated,PTH,ComponentDrill
T3C1.100
; #@! TA.AperFunction,Plated,PTH,ComponentDrill
T4C1.200
; #@! TA.AperFunction,Plated,PTH,ComponentDrill
T5C1.500
; #@! TA.AperFunction,Plated,PTH,ComponentDrill
T6C1.700
; #@! TA.AperFunction,Plated,PTH,ComponentDrill
T7C2.700
%
G90
G05
T1
X6.275Y80.125
X33.1Y77.975
X174.45Y79.675
X177.35Y81.15
T2
X53.475Y61.125
X53.507Y20.307
X54.068Y62.557
X54.068Y59.693
X54.1Y21.739
X54.1Y18.875
X55.5Y63.15
X55.5Y59.1
X55.532Y22.332
X55.532Y18.282
X56.932Y62.557
X56.932Y59.693
X56.964Y21.739
X56.964Y18.875
X57.525Y61.125
X57.557Y20.307
X113.9Y60.825
X113.925Y20.225
X114.493Y62.257
X114.493Y59.393
X114.518Y21.657
X114.518Y18.793
X115.925Y62.85
X115.925Y58.8
X115.95Y22.25
X115.95Y18.2
X117.357Y62.257
X117.357Y59.393
X117.382Y21.657
X117.382Y18.793
X117.95Y60.825
X117.975Y20.225
T3
X160.43Y77.875
X160.43Y75.335
X160.43Y72.795
X160.43Y70.255
X160.43Y67.715
X160.43Y65.175
X160.43Y62.635
X160.43Y60.095
X160.43Y57.555
X160.43Y55.015
X160.43Y52.475
X160.43Y49.935
X175.67Y77.875
X175.67Y75.335
X175.67Y72.795
X175.67Y70.255
X175.67Y67.715
X175.67Y65.175
X175.67Y62.635
X175.67Y60.095
X175.67Y57.555
X175.67Y55.015
X175.67Y52.475
X175.67Y49.935
T4
X8.2Y76.605
X8.2Y3.105
X11.7Y3.105
X23.975Y76.675
X23.975Y3.175
X27.475Y3.175
T5
X41.385Y73.415
X41.385Y53.215
X41.385Y33.015
X41.385Y12.815
X47.735Y75.955
X47.735Y55.755
X47.735Y35.555
X47.735Y15.355
X61.585Y73.415
X61.585Y53.215
X61.585Y33.015
X61.585Y12.815
X67.935Y75.955
X67.935Y55.755
X67.935Y35.555
X67.935Y15.355
X81.785Y73.415
X81.785Y53.215
X81.785Y33.015
X81.785Y12.815
X88.135Y75.955
X88.135Y55.755
X88.135Y35.555
X88.135Y15.355
X101.985Y73.415
X101.985Y53.215
X101.985Y33.015
X101.985Y12.815
X108.335Y75.955
X108.335Y55.755
X108.335Y35.555
X108.335Y15.355
X122.185Y73.415
X122.185Y53.215
X122.185Y33.015
X122.185Y12.815
X128.535Y75.955
X128.535Y55.755
X128.535Y35.555
X128.535Y15.355
X142.385Y73.415
X142.385Y53.215
X142.765Y22.515
X148.735Y75.955
X148.735Y55.755
X149.115Y25.055
T6
X5.75Y71.255
X5.75Y8.455
X14.15Y72.455
X14.15Y7.255
X21.525Y71.325
X21.525Y8.525
X29.925Y72.525
X29.925Y7.325
T7
X55.5Y61.125
X55.532Y20.307
X115.925Y60.825
X115.95Y20.225
T0
M30
