%TF.GenerationSoftware,KiCad,Pcbnew,(7.0.0)*%
%TF.CreationDate,2024-11-11T13:13:17+03:00*%
%TF.ProjectId,04. Keyboard 6x4 Matrix,30342e20-4b65-4796-926f-617264203678,rev?*%
%TF.SameCoordinates,PX24bd848PY898b2e8*%
%TF.FileFunction,Soldermask,Top*%
%TF.FilePolarity,Negative*%
%FSLAX46Y46*%
G04 Gerber Fmt 4.6, Leading zero omitted, Abs format (unit mm)*
G04 Created by KiCad (PCBNEW (7.0.0)) date 2024-11-11 13:13:17*
%MOMM*%
%LPD*%
G01*
G04 APERTURE LIST*
%ADD10C,1.700000*%
%ADD11C,4.000000*%
%ADD12C,2.200000*%
%ADD13R,1.600000X1.600000*%
%ADD14C,1.600000*%
%ADD15C,0.800000*%
%ADD16C,5.400000*%
%ADD17R,1.750000X1.750000*%
%ADD18C,1.750000*%
%ADD19C,2.700000*%
%ADD20C,3.050000*%
G04 APERTURE END LIST*
D10*
%TO.C,SW17*%
X120915000Y70875000D03*
D11*
X125995000Y70875000D03*
D10*
X131075000Y70875000D03*
D12*
X128535000Y75955000D03*
X122185000Y73415000D03*
%TD*%
D10*
%TO.C,SW14*%
X100715000Y50675000D03*
D11*
X105795000Y50675000D03*
D10*
X110875000Y50675000D03*
D12*
X108335000Y55755000D03*
X101985000Y53215000D03*
%TD*%
D13*
%TO.C,U4*%
X160429999Y77874999D03*
D14*
X160430000Y75335000D03*
X160430000Y72795000D03*
X160430000Y70255000D03*
X160430000Y67715000D03*
X160430000Y65175000D03*
X160430000Y62635000D03*
X160430000Y60095000D03*
X160430000Y57555000D03*
X160430000Y55015000D03*
X160430000Y52475000D03*
X160430000Y49935000D03*
X175670000Y49935000D03*
X175670000Y52475000D03*
X175670000Y55015000D03*
X175670000Y57555000D03*
X175670000Y60095000D03*
X175670000Y62635000D03*
X175670000Y65175000D03*
X175670000Y67715000D03*
X175670000Y70255000D03*
X175670000Y72795000D03*
X175670000Y75335000D03*
X175670000Y77875000D03*
%TD*%
D10*
%TO.C,SW12*%
X80515000Y10275000D03*
D11*
X85595000Y10275000D03*
D10*
X90675000Y10275000D03*
D12*
X88135000Y15355000D03*
X81785000Y12815000D03*
%TD*%
D10*
%TO.C,SW15*%
X100715000Y30475000D03*
D11*
X105795000Y30475000D03*
D10*
X110875000Y30475000D03*
D12*
X108335000Y35555000D03*
X101985000Y33015000D03*
%TD*%
D10*
%TO.C,SW1*%
X40115000Y70875000D03*
D11*
X45195000Y70875000D03*
D10*
X50275000Y70875000D03*
D12*
X47735000Y75955000D03*
X41385000Y73415000D03*
%TD*%
D10*
%TO.C,SW4*%
X40115000Y10275000D03*
D11*
X45195000Y10275000D03*
D10*
X50275000Y10275000D03*
D12*
X47735000Y15355000D03*
X41385000Y12815000D03*
%TD*%
D15*
%TO.C,H2*%
X113900000Y60825000D03*
X114493109Y62256891D03*
X114493109Y59393109D03*
X115925000Y62850000D03*
D16*
X115925000Y60825000D03*
D15*
X115925000Y58800000D03*
X117356891Y62256891D03*
X117356891Y59393109D03*
X117950000Y60825000D03*
%TD*%
D10*
%TO.C,SW19*%
X120915000Y30475000D03*
D11*
X125995000Y30475000D03*
D10*
X131075000Y30475000D03*
D12*
X128535000Y35555000D03*
X122185000Y33015000D03*
%TD*%
D10*
%TO.C,SW6*%
X60315000Y50675000D03*
D11*
X65395000Y50675000D03*
D10*
X70475000Y50675000D03*
D12*
X67935000Y55755000D03*
X61585000Y53215000D03*
%TD*%
D10*
%TO.C,SW13*%
X100715000Y70875000D03*
D11*
X105795000Y70875000D03*
D10*
X110875000Y70875000D03*
D12*
X108335000Y75955000D03*
X101985000Y73415000D03*
%TD*%
D10*
%TO.C,SW16*%
X100715000Y10275000D03*
D11*
X105795000Y10275000D03*
D10*
X110875000Y10275000D03*
D12*
X108335000Y15355000D03*
X101985000Y12815000D03*
%TD*%
D10*
%TO.C,SW18*%
X120915000Y50675000D03*
D11*
X125995000Y50675000D03*
D10*
X131075000Y50675000D03*
D12*
X128535000Y55755000D03*
X122185000Y53215000D03*
%TD*%
D10*
%TO.C,SW20*%
X120915000Y10275000D03*
D11*
X125995000Y10275000D03*
D10*
X131075000Y10275000D03*
D12*
X128535000Y15355000D03*
X122185000Y12815000D03*
%TD*%
D10*
%TO.C,SW3*%
X40115000Y30475000D03*
D11*
X45195000Y30475000D03*
D10*
X50275000Y30475000D03*
D12*
X47735000Y35555000D03*
X41385000Y33015000D03*
%TD*%
D15*
%TO.C,H3*%
X113925000Y20225000D03*
X114518109Y21656891D03*
X114518109Y18793109D03*
X115950000Y22250000D03*
D16*
X115950000Y20225000D03*
D15*
X115950000Y18200000D03*
X117381891Y21656891D03*
X117381891Y18793109D03*
X117975000Y20225000D03*
%TD*%
D10*
%TO.C,SW5*%
X60315000Y70875000D03*
D11*
X65395000Y70875000D03*
D10*
X70475000Y70875000D03*
D12*
X67935000Y75955000D03*
X61585000Y73415000D03*
%TD*%
D10*
%TO.C,SW11*%
X80515000Y30475000D03*
D11*
X85595000Y30475000D03*
D10*
X90675000Y30475000D03*
D12*
X88135000Y35555000D03*
X81785000Y33015000D03*
%TD*%
D17*
%TO.C,R28*%
X8199999Y3104999D03*
D18*
X11700000Y3105000D03*
X8200000Y76605000D03*
D19*
X14150000Y7255000D03*
X5750000Y8455000D03*
X5750000Y71255000D03*
X14150000Y72455000D03*
%TD*%
D10*
%TO.C,SW21*%
X141115000Y70875000D03*
D11*
X146195000Y70875000D03*
D10*
X151275000Y70875000D03*
D12*
X148735000Y75955000D03*
X142385000Y73415000D03*
%TD*%
D10*
%TO.C,SW8*%
X60315000Y10275000D03*
D11*
X65395000Y10275000D03*
D10*
X70475000Y10275000D03*
D12*
X67935000Y15355000D03*
X61585000Y12815000D03*
%TD*%
D15*
%TO.C,H1*%
X53475000Y61125000D03*
X54068109Y62556891D03*
X54068109Y59693109D03*
X55500000Y63150000D03*
D16*
X55500000Y61125000D03*
D15*
X55500000Y59100000D03*
X56931891Y62556891D03*
X56931891Y59693109D03*
X57525000Y61125000D03*
%TD*%
%TO.C,H4*%
X53506891Y20306891D03*
X54100000Y21738782D03*
X54100000Y18875000D03*
X55531891Y22331891D03*
D16*
X55531891Y20306891D03*
D15*
X55531891Y18281891D03*
X56963782Y21738782D03*
X56963782Y18875000D03*
X57556891Y20306891D03*
%TD*%
D10*
%TO.C,SW2*%
X40115000Y50675000D03*
D11*
X45195000Y50675000D03*
D10*
X50275000Y50675000D03*
D12*
X47735000Y55755000D03*
X41385000Y53215000D03*
%TD*%
D10*
%TO.C,SW10*%
X80515000Y50675000D03*
D11*
X85595000Y50675000D03*
D10*
X90675000Y50675000D03*
D12*
X88135000Y55755000D03*
X81785000Y53215000D03*
%TD*%
D10*
%TO.C,SW9*%
X80515000Y70875000D03*
D11*
X85595000Y70875000D03*
D10*
X90675000Y70875000D03*
D12*
X88135000Y75955000D03*
X81785000Y73415000D03*
%TD*%
D10*
%TO.C,SW7*%
X60315000Y30475000D03*
D11*
X65395000Y30475000D03*
D10*
X70475000Y30475000D03*
D12*
X67935000Y35555000D03*
X61585000Y33015000D03*
%TD*%
D20*
%TO.C,SW23*%
X139575000Y31875000D03*
X139575000Y8075000D03*
D10*
X141495000Y19975000D03*
D11*
X146575000Y19975000D03*
D10*
X151655000Y19975000D03*
D11*
X154815000Y31875000D03*
X154815000Y8075000D03*
D12*
X149115000Y25055000D03*
X142765000Y22515000D03*
%TD*%
D17*
%TO.C,R24*%
X23974999Y3174999D03*
D18*
X27475000Y3175000D03*
X23975000Y76675000D03*
D19*
X29925000Y7325000D03*
X21525000Y8525000D03*
X21525000Y71325000D03*
X29925000Y72525000D03*
%TD*%
D10*
%TO.C,SW22*%
X141115000Y50675000D03*
D11*
X146195000Y50675000D03*
D10*
X151275000Y50675000D03*
D12*
X148735000Y55755000D03*
X142385000Y53215000D03*
%TD*%
M02*
