M48
; DRILL file {KiCad (7.0.0)} date Mon Nov 11 13:12:49 2024
; FORMAT={-:-/ absolute / metric / decimal}
; #@! TF.CreationDate,2024-11-11T13:12:49+03:00
; #@! TF.GenerationSoftware,Kicad,Pcbnew,(7.0.0)
; #@! TF.FileFunction,NonPlated,1,2,NPTH
FMAT,2
METRIC
; #@! TA.AperFunction,NonPlated,NPTH,ComponentDrill
T1C1.700
; #@! TA.AperFunction,NonPlated,NPTH,ComponentDrill
T2C3.050
; #@! TA.AperFunction,NonPlated,NPTH,ComponentDrill
T3C4.000
%
G90
G05
T1
X40.115Y70.875
X40.115Y50.675
X40.115Y30.475
X40.115Y10.275
X50.275Y70.875
X50.275Y50.675
X50.275Y30.475
X50.275Y10.275
X60.315Y70.875
X60.315Y50.675
X60.315Y30.475
X60.315Y10.275
X70.475Y70.875
X70.475Y50.675
X70.475Y30.475
X70.475Y10.275
X80.515Y70.875
X80.515Y50.675
X80.515Y30.475
X80.515Y10.275
X90.675Y70.875
X90.675Y50.675
X90.675Y30.475
X90.675Y10.275
X100.715Y70.875
X100.715Y50.675
X100.715Y30.475
X100.715Y10.275
X110.875Y70.875
X110.875Y50.675
X110.875Y30.475
X110.875Y10.275
X120.915Y70.875
X120.915Y50.675
X120.915Y30.475
X120.915Y10.275
X131.075Y70.875
X131.075Y50.675
X131.075Y30.475
X131.075Y10.275
X141.115Y70.875
X141.115Y50.675
X141.495Y19.975
X151.275Y70.875
X151.275Y50.675
X151.655Y19.975
T2
X139.575Y31.875
X139.575Y8.075
T3
X45.195Y70.875
X45.195Y50.675
X45.195Y30.475
X45.195Y10.275
X65.395Y70.875
X65.395Y50.675
X65.395Y30.475
X65.395Y10.275
X85.595Y70.875
X85.595Y50.675
X85.595Y30.475
X85.595Y10.275
X105.795Y70.875
X105.795Y50.675
X105.795Y30.475
X105.795Y10.275
X125.995Y70.875
X125.995Y50.675
X125.995Y30.475
X125.995Y10.275
X146.195Y70.875
X146.195Y50.675
X146.575Y19.975
X154.815Y31.875
X154.815Y8.075
T0
M30
