%TF.GenerationSoftware,KiCad,Pcbnew,(7.0.0)*%
%TF.CreationDate,2024-11-11T13:13:17+03:00*%
%TF.ProjectId,04. Keyboard 6x4 Matrix,30342e20-4b65-4796-926f-617264203678,rev?*%
%TF.SameCoordinates,PX24bd848PY898b2e8*%
%TF.FileFunction,Paste,Bot*%
%TF.FilePolarity,Positive*%
%FSLAX46Y46*%
G04 Gerber Fmt 4.6, Leading zero omitted, Abs format (unit mm)*
G04 Created by KiCad (PCBNEW (7.0.0)) date 2024-11-11 13:13:17*
%MOMM*%
%LPD*%
G01*
G04 APERTURE LIST*
G04 Aperture macros list*
%AMRoundRect*
0 Rectangle with rounded corners*
0 $1 Rounding radius*
0 $2 $3 $4 $5 $6 $7 $8 $9 X,Y pos of 4 corners*
0 Add a 4 corners polygon primitive as box body*
4,1,4,$2,$3,$4,$5,$6,$7,$8,$9,$2,$3,0*
0 Add four circle primitives for the rounded corners*
1,1,$1+$1,$2,$3*
1,1,$1+$1,$4,$5*
1,1,$1+$1,$6,$7*
1,1,$1+$1,$8,$9*
0 Add four rect primitives between the rounded corners*
20,1,$1+$1,$2,$3,$4,$5,0*
20,1,$1+$1,$4,$5,$6,$7,0*
20,1,$1+$1,$6,$7,$8,$9,0*
20,1,$1+$1,$8,$9,$2,$3,0*%
G04 Aperture macros list end*
%ADD10RoundRect,0.218750X0.256250X-0.218750X0.256250X0.218750X-0.256250X0.218750X-0.256250X-0.218750X0*%
%ADD11RoundRect,0.218750X-0.256250X0.218750X-0.256250X-0.218750X0.256250X-0.218750X0.256250X0.218750X0*%
G04 APERTURE END LIST*
D10*
%TO.C,D23*%
X115900000Y10325000D03*
X115900000Y11900000D03*
%TD*%
%TO.C,D10*%
X136025000Y70775000D03*
X136025000Y72350000D03*
%TD*%
%TO.C,D5*%
X55275000Y50700000D03*
X55275000Y52275000D03*
%TD*%
%TO.C,D14*%
X115850000Y30400000D03*
X115850000Y31975000D03*
%TD*%
%TO.C,D22*%
X95725000Y10175000D03*
X95725000Y11750000D03*
%TD*%
%TO.C,D21*%
X75400000Y10150000D03*
X75400000Y11725000D03*
%TD*%
%TO.C,D8*%
X95775000Y70800000D03*
X95775000Y72375000D03*
%TD*%
%TO.C,D17*%
X55175000Y30550000D03*
X55175000Y32125000D03*
%TD*%
%TO.C,D19*%
X34575000Y10250000D03*
X34575000Y11825000D03*
%TD*%
%TO.C,D11*%
X136025000Y50675000D03*
X136025000Y52250000D03*
%TD*%
%TO.C,D3*%
X75500000Y70900000D03*
X75500000Y72475000D03*
%TD*%
%TO.C,D16*%
X75550000Y30450000D03*
X75550000Y32025000D03*
%TD*%
%TO.C,D20*%
X55375000Y10225000D03*
X55375000Y11800000D03*
%TD*%
%TO.C,D2*%
X55400000Y70800000D03*
X55400000Y72375000D03*
%TD*%
%TO.C,D18*%
X34650000Y30375000D03*
X34650000Y31950000D03*
%TD*%
%TO.C,D4*%
X34775000Y50650000D03*
X34775000Y52225000D03*
%TD*%
%TO.C,D12*%
X115850000Y50600000D03*
X115850000Y52175000D03*
%TD*%
%TO.C,D15*%
X95700000Y30450000D03*
X95700000Y32025000D03*
%TD*%
%TO.C,D1*%
X34725000Y70825000D03*
X34725000Y72400000D03*
%TD*%
%TO.C,D7*%
X95725000Y50625000D03*
X95725000Y52200000D03*
%TD*%
%TO.C,D6*%
X75500000Y50650000D03*
X75500000Y52225000D03*
%TD*%
%TO.C,D9*%
X116025000Y70850000D03*
X116025000Y72425000D03*
%TD*%
D11*
%TO.C,D13*%
X136075000Y25000000D03*
X136075000Y23425000D03*
%TD*%
M02*
